<?xml version="1.0" encoding="UTF-8"?>
<!DOCTYPE svg PUBLIC "-//W3C//DTD SVG 1.1//EN" "http://www.w3.org/Graphics/SVG/1.1/DTD/svg11.dtd">
<svg xmlns="http://www.w3.org/2000/svg" version="1.1" width="512px" height="512px" style="shape-rendering:geometricPrecision; text-rendering:geometricPrecision; image-rendering:optimizeQuality; fill-rule:evenodd; clip-rule:evenodd" xmlns:xlink="http://www.w3.org/1999/xlink">
<g><path style="opacity:0.862" fill="#707170" d="M 237.5,-0.5 C 250.167,-0.5 262.833,-0.5 275.5,-0.5C 313.686,23.8297 347.519,53.4963 377,88.5C 433.786,156.355 478.62,231.689 511.5,314.5C 511.5,319.167 511.5,323.833 511.5,328.5C 509.669,329.052 508.003,329.052 506.5,328.5C 470.662,233.289 418.828,148.289 351,73.5C 325.675,46.4881 297.175,23.6548 265.5,5C 259.5,4.33333 253.5,4.33333 247.5,5C 229.093,16.5401 211.76,29.5401 195.5,44C 122.73,111.711 65.2301,190.544 23,280.5C 15.8795,296.745 9.87945,313.412 5,330.5C 3.22448,331.536 1.39114,331.536 -0.5,330.5C -0.5,325.5 -0.5,320.5 -0.5,315.5C 16.5116,267.476 39.345,222.476 68,180.5C 108.213,118.27 157.047,63.4364 214.5,16C 222.234,10.4783 229.9,4.97834 237.5,-0.5 Z"/></g>
<g><path style="opacity:0.998" fill="#b8b8b8" d="M 249.5,16.5 C 250.568,15.5655 251.901,15.2322 253.5,15.5C 253.5,145.833 253.5,276.167 253.5,406.5C 253.167,407.5 252.5,408.167 251.5,408.5C 250.833,277.833 250.167,147.167 249.5,16.5 Z"/></g>
<g><path style="opacity:0.999" fill="#bdbdbd" d="M 253.5,15.5 C 254.833,15.5 256.167,15.5 257.5,15.5C 258.488,144.506 258.821,274.006 258.5,404C 258.316,405.376 257.649,406.209 256.5,406.5C 255.5,406.5 254.5,406.5 253.5,406.5C 253.5,276.167 253.5,145.833 253.5,15.5 Z"/></g>
<g><path style="opacity:0.998" fill="#b8b8b8" d="M 257.5,15.5 C 259.099,15.2322 260.432,15.5655 261.5,16.5C 260.811,143.72 260.811,272.22 261.5,402C 260.877,404.607 260.21,407.107 259.5,409.5C 258.167,408.833 257.167,407.833 256.5,406.5C 257.649,406.209 258.316,405.376 258.5,404C 258.821,274.006 258.488,144.506 257.5,15.5 Z"/></g>
<g><path style="opacity:0.998" fill="#b2b2b2" d="M 249.5,16.5 C 250.167,147.167 250.833,277.833 251.5,408.5C 251.008,410.819 250.008,412.819 248.5,414.5C 247.694,413.003 247.028,411.336 246.5,409.5C 247.481,279.505 247.481,148.838 246.5,17.5C 247.391,16.8902 248.391,16.5569 249.5,16.5 Z"/></g>
<g><path style="opacity:0.999" fill="#b1b1b1" d="M 261.5,16.5 C 262.609,16.5569 263.609,16.8902 264.5,17.5C 264.833,151.334 264.5,285.001 263.5,418.5C 262.934,415.127 261.601,412.127 259.5,409.5C 260.21,407.107 260.877,404.607 261.5,402C 260.811,272.22 260.811,143.72 261.5,16.5 Z"/></g>
<g><path style="opacity:0.996" fill="#acacac" d="M 246.5,17.5 C 247.481,148.838 247.481,279.505 246.5,409.5C 247.028,411.336 247.694,413.003 248.5,414.5C 246.604,420.658 245.604,426.991 245.5,433.5C 244.832,296.264 244.165,158.931 243.5,21.5C 243.738,19.5956 244.738,18.2623 246.5,17.5 Z"/></g>
<g><path style="opacity:0.985" fill="#ababab" d="M 264.5,17.5 C 266.773,17.9568 268.106,19.2901 268.5,21.5C 267.167,164.167 267.167,306.833 268.5,449.5C 268.543,455.926 267.21,461.926 264.5,467.5C 264.826,458.983 264.493,450.65 263.5,442.5C 265.16,440.678 266.16,438.511 266.5,436C 265.899,430.076 264.899,424.242 263.5,418.5C 264.5,285.001 264.833,151.334 264.5,17.5 Z"/></g>
<g><path style="opacity:0.959" fill="#a6a6a6" d="M 243.5,21.5 C 244.165,158.931 244.832,296.264 245.5,433.5C 245.207,436.754 245.874,439.754 247.5,442.5C 247.652,451.434 247.319,459.767 246.5,467.5C 244.193,458.016 242.193,448.349 240.5,438.5C 241.332,300.54 241.832,162.54 242,24.5C 242.232,23.2625 242.732,22.2625 243.5,21.5 Z"/></g>
<g><path style="opacity:0.745" fill="#a5a5a5" d="M 268.5,21.5 C 269.268,22.2625 269.768,23.2625 270,24.5C 270.667,163.833 270.667,303.167 270,442.5C 269.814,445.036 269.314,447.369 268.5,449.5C 267.167,306.833 267.167,164.167 268.5,21.5 Z"/></g>
<g><path style="opacity:0.996" fill="#b1b1b1" d="M 214.5,51.5 C 214.831,171.768 215.831,291.768 217.5,411.5C 216.488,412.872 215.488,414.205 214.5,415.5C 213.883,415.611 213.383,415.944 213,416.5C 212.83,295.127 212.33,173.793 211.5,52.5C 212.391,51.8902 213.391,51.5569 214.5,51.5 Z"/></g>
<g><path style="opacity:0.998" fill="#b8b8b8" d="M 214.5,51.5 C 215.833,51.5 217.167,51.5 218.5,51.5C 218.5,170.833 218.5,290.167 218.5,409.5C 219.833,409.5 221.167,409.5 222.5,409.5C 222.775,289.242 222.775,169.908 222.5,51.5C 223.833,51.5 225.167,51.5 226.5,51.5C 225.669,171.764 225.169,292.097 225,412.5C 224.329,411.748 223.496,411.414 222.5,411.5C 220.833,410.167 219.167,410.167 217.5,411.5C 215.831,291.768 214.831,171.768 214.5,51.5 Z"/></g>
<g><path style="opacity:0.999" fill="#bdbdbd" d="M 218.5,51.5 C 219.833,51.5 221.167,51.5 222.5,51.5C 222.775,169.908 222.775,289.242 222.5,409.5C 221.167,409.5 219.833,409.5 218.5,409.5C 218.5,290.167 218.5,170.833 218.5,51.5 Z"/></g>
<g><path style="opacity:0.996" fill="#b1b1b1" d="M 226.5,51.5 C 227.492,51.3284 228.158,51.6618 228.5,52.5C 228.168,150.404 228.501,248.237 229.5,346C 228.672,370.094 228.172,394.261 228,418.5C 227.623,417.058 226.79,416.058 225.5,415.5C 224.5,414.167 223.5,412.833 222.5,411.5C 223.496,411.414 224.329,411.748 225,412.5C 225.169,292.097 225.669,171.764 226.5,51.5 Z"/></g>
<g><path style="opacity:0.996" fill="#b1b1b1" d="M 284.5,51.5 C 284.831,171.768 285.831,291.768 287.5,411.5C 286.488,412.872 285.488,414.205 284.5,415.5C 283.883,415.611 283.383,415.944 283,416.5C 282.83,295.127 282.33,173.793 281.5,52.5C 282.391,51.8902 283.391,51.5569 284.5,51.5 Z"/></g>
<g><path style="opacity:0.998" fill="#b8b8b8" d="M 284.5,51.5 C 285.833,51.5 287.167,51.5 288.5,51.5C 288.5,170.833 288.5,290.167 288.5,409.5C 289.833,409.5 291.167,409.5 292.5,409.5C 292.775,289.242 292.775,169.908 292.5,51.5C 293.833,51.5 295.167,51.5 296.5,51.5C 295.669,171.764 295.169,292.097 295,412.5C 294.329,411.748 293.496,411.414 292.5,411.5C 290.833,410.167 289.167,410.167 287.5,411.5C 285.831,291.768 284.831,171.768 284.5,51.5 Z"/></g>
<g><path style="opacity:0.999" fill="#bdbdbd" d="M 288.5,51.5 C 289.833,51.5 291.167,51.5 292.5,51.5C 292.775,169.908 292.775,289.242 292.5,409.5C 291.167,409.5 289.833,409.5 288.5,409.5C 288.5,290.167 288.5,170.833 288.5,51.5 Z"/></g>
<g><path style="opacity:0.996" fill="#b1b1b1" d="M 296.5,51.5 C 297.492,51.3284 298.158,51.6618 298.5,52.5C 298.168,150.404 298.501,248.237 299.5,346C 298.672,370.094 298.172,394.261 298,418.5C 297.623,417.058 296.79,416.058 295.5,415.5C 294.5,414.167 293.5,412.833 292.5,411.5C 293.496,411.414 294.329,411.748 295,412.5C 295.169,292.097 295.669,171.764 296.5,51.5 Z"/></g>
<g><path style="opacity:0.993" fill="#ababab" d="M 211.5,52.5 C 212.33,173.793 212.83,295.127 213,416.5C 213.383,415.944 213.883,415.611 214.5,415.5C 214.125,417.698 213.458,419.698 212.5,421.5C 211.361,425.301 210.528,429.301 210,433.5C 209.833,307.999 209.333,182.666 208.5,57.5C 208.273,55.0672 209.273,53.4006 211.5,52.5 Z"/></g>
<g><path style="opacity:0.992" fill="#ababab" d="M 228.5,52.5 C 230.749,53.0798 232.415,54.4131 233.5,56.5C 232.883,56.6107 232.383,56.944 232,57.5C 231.667,183.167 231.333,308.833 231,434.5C 230.817,431.635 230.317,428.969 229.5,426.5C 228.504,422.816 227.171,419.149 225.5,415.5C 226.79,416.058 227.623,417.058 228,418.5C 228.172,394.261 228.672,370.094 229.5,346C 228.501,248.237 228.168,150.404 228.5,52.5 Z"/></g>
<g><path style="opacity:0.993" fill="#ababab" d="M 281.5,52.5 C 282.33,173.793 282.83,295.127 283,416.5C 283.383,415.944 283.883,415.611 284.5,415.5C 284.125,417.698 283.458,419.698 282.5,421.5C 281.361,425.301 280.528,429.301 280,433.5C 279.833,307.999 279.333,182.666 278.5,57.5C 278.273,55.0672 279.273,53.4006 281.5,52.5 Z"/></g>
<g><path style="opacity:0.992" fill="#ababab" d="M 298.5,52.5 C 300.749,53.0798 302.415,54.4131 303.5,56.5C 302.883,56.6107 302.383,56.944 302,57.5C 301.667,183.167 301.333,308.833 301,434.5C 300.817,431.635 300.317,428.969 299.5,426.5C 298.504,422.816 297.171,419.149 295.5,415.5C 296.79,416.058 297.623,417.058 298,418.5C 298.172,394.261 298.672,370.094 299.5,346C 298.501,248.237 298.168,150.404 298.5,52.5 Z"/></g>
<g><path style="opacity:0.75" fill="#a5a5a5" d="M 233.5,56.5 C 234.832,187.598 234.832,318.598 233.5,449.5C 231.763,446.992 230.93,443.992 231,440.5C 230.617,441.056 230.117,441.389 229.5,441.5C 229.852,436.593 229.852,431.593 229.5,426.5C 230.317,428.969 230.817,431.635 231,434.5C 231.333,308.833 231.667,183.167 232,57.5C 232.383,56.944 232.883,56.6107 233.5,56.5 Z"/></g>
<g><path style="opacity:0.75" fill="#a5a5a5" d="M 303.5,56.5 C 304.832,187.598 304.832,318.598 303.5,449.5C 301.763,446.992 300.93,443.992 301,440.5C 300.617,441.056 300.117,441.389 299.5,441.5C 299.852,436.593 299.852,431.593 299.5,426.5C 300.317,428.969 300.817,431.635 301,434.5C 301.333,308.833 301.667,183.167 302,57.5C 302.383,56.944 302.883,56.6107 303.5,56.5 Z"/></g>
<g><path style="opacity:0.645" fill="#a5a5a5" d="M 208.5,57.5 C 209.333,182.666 209.833,307.999 210,433.5C 210.528,429.301 211.361,425.301 212.5,421.5C 212.302,426.888 211.635,432.221 210.5,437.5C 210.846,438.849 211.179,440.183 211.5,441.5C 210.883,441.389 210.383,441.056 210,440.5C 209.823,444.356 209.323,448.023 208.5,451.5C 207.698,450.048 207.198,448.382 207,446.5C 206.333,317.5 206.333,188.5 207,59.5C 207.278,58.5842 207.778,57.9175 208.5,57.5 Z"/></g>
<g><path style="opacity:0.645" fill="#a5a5a5" d="M 278.5,57.5 C 279.333,182.666 279.833,307.999 280,433.5C 280.528,429.301 281.361,425.301 282.5,421.5C 282.302,426.888 281.635,432.221 280.5,437.5C 280.846,438.849 281.179,440.183 281.5,441.5C 280.883,441.389 280.383,441.056 280,440.5C 279.823,444.356 279.323,448.023 278.5,451.5C 277.698,450.048 277.198,448.382 277,446.5C 276.333,317.5 276.333,188.5 277,59.5C 277.278,58.5842 277.778,57.9175 278.5,57.5 Z"/></g>
<g><path style="opacity:0.993" fill="#b1b1b1" d="M 186.5,93.5 C 185.835,200.839 186.502,307.839 188.5,414.5C 187.488,415.872 186.488,417.205 185.5,418.5C 184.307,418.03 183.64,417.03 183.5,415.5C 184.352,312.822 184.686,208.822 184.5,103.5C 183.936,100.435 183.269,97.4352 182.5,94.5C 183.708,93.7659 185.041,93.4326 186.5,93.5 Z"/></g>
<g><path style="opacity:0.999" fill="#b8b8b8" d="M 186.5,93.5 C 187.167,93.5 187.833,93.5 188.5,93.5C 189.121,198.81 189.121,303.977 188.5,409C 189.222,410.751 190.222,412.251 191.5,413.5C 190.391,413.557 189.391,413.89 188.5,414.5C 186.502,307.839 185.835,200.839 186.5,93.5 Z"/></g>
<g><path style="opacity:0.999" fill="#bdbdbd" d="M 188.5,93.5 C 190.167,93.5 191.833,93.5 193.5,93.5C 194.165,200.505 193.498,307.172 191.5,413.5C 190.222,412.251 189.222,410.751 188.5,409C 189.121,303.977 189.121,198.81 188.5,93.5 Z"/></g>
<g><path style="opacity:0.997" fill="#b7b7b7" d="M 193.5,93.5 C 194.5,93.5 195.5,93.5 196.5,93.5C 195.669,200.764 195.169,308.097 195,415.5C 194.329,414.748 193.496,414.414 192.5,414.5C 191.833,414.5 191.5,414.167 191.5,413.5C 193.498,307.172 194.165,200.505 193.5,93.5 Z"/></g>
<g><path style="opacity:0.996" fill="#b1b1b1" d="M 196.5,93.5 C 197.609,93.5569 198.609,93.8902 199.5,94.5C 198.669,203.097 198.169,311.764 198,420.5C 197.617,419.944 197.117,419.611 196.5,419.5C 195.197,417.858 193.864,416.191 192.5,414.5C 193.496,414.414 194.329,414.748 195,415.5C 195.169,308.097 195.669,200.764 196.5,93.5 Z"/></g>
<g><path style="opacity:0.993" fill="#b1b1b1" d="M 316.5,93.5 C 315.835,200.839 316.502,307.839 318.5,414.5C 317.488,415.872 316.488,417.205 315.5,418.5C 314.307,418.03 313.64,417.03 313.5,415.5C 314.352,312.822 314.686,208.822 314.5,103.5C 313.936,100.435 313.269,97.4352 312.5,94.5C 313.708,93.7659 315.041,93.4326 316.5,93.5 Z"/></g>
<g><path style="opacity:0.999" fill="#b8b8b8" d="M 316.5,93.5 C 317.167,93.5 317.833,93.5 318.5,93.5C 319.121,198.81 319.121,303.977 318.5,409C 319.222,410.751 320.222,412.251 321.5,413.5C 320.391,413.557 319.391,413.89 318.5,414.5C 316.502,307.839 315.835,200.839 316.5,93.5 Z"/></g>
<g><path style="opacity:0.999" fill="#bdbdbd" d="M 318.5,93.5 C 320.167,93.5 321.833,93.5 323.5,93.5C 324.165,200.505 323.498,307.172 321.5,413.5C 320.222,412.251 319.222,410.751 318.5,409C 319.121,303.977 319.121,198.81 318.5,93.5 Z"/></g>
<g><path style="opacity:0.997" fill="#b7b7b7" d="M 323.5,93.5 C 324.5,93.5 325.5,93.5 326.5,93.5C 325.669,200.764 325.169,308.097 325,415.5C 324.329,414.748 323.496,414.414 322.5,414.5C 321.833,414.5 321.5,414.167 321.5,413.5C 323.498,307.172 324.165,200.505 323.5,93.5 Z"/></g>
<g><path style="opacity:0.996" fill="#b1b1b1" d="M 326.5,93.5 C 327.609,93.5569 328.609,93.8902 329.5,94.5C 328.669,203.097 328.169,311.764 328,420.5C 327.617,419.944 327.117,419.611 326.5,419.5C 325.197,417.858 323.864,416.191 322.5,414.5C 323.496,414.414 324.329,414.748 325,415.5C 325.169,308.097 325.669,200.764 326.5,93.5 Z"/></g>
<g><path style="opacity:0.988" fill="#ababab" d="M 182.5,94.5 C 183.269,97.4352 183.936,100.435 184.5,103.5C 184.686,208.822 184.352,312.822 183.5,415.5C 183.64,417.03 184.307,418.03 185.5,418.5C 185.5,419.167 185.5,419.833 185.5,420.5C 184.186,423.277 183.186,426.277 182.5,429.5C 182.166,318.83 181.166,208.497 179.5,98.5C 179.738,96.5956 180.738,95.2623 182.5,94.5 Z"/></g>
<g><path style="opacity:0.989" fill="#ababab" d="M 199.5,94.5 C 201.262,95.2623 202.262,96.5956 202.5,98.5C 201.883,98.6107 201.383,98.944 201,99.5C 200.667,209.5 200.333,319.5 200,429.5C 199.617,428.944 199.117,428.611 198.5,428.5C 198.587,425.261 197.92,422.261 196.5,419.5C 197.117,419.611 197.617,419.944 198,420.5C 198.169,311.764 198.669,203.097 199.5,94.5 Z"/></g>
<g><path style="opacity:0.988" fill="#ababab" d="M 312.5,94.5 C 313.269,97.4352 313.936,100.435 314.5,103.5C 314.686,208.822 314.352,312.822 313.5,415.5C 313.64,417.03 314.307,418.03 315.5,418.5C 315.5,419.167 315.5,419.833 315.5,420.5C 314.186,423.277 313.186,426.277 312.5,429.5C 312.166,318.83 311.166,208.497 309.5,98.5C 309.738,96.5956 310.738,95.2623 312.5,94.5 Z"/></g>
<g><path style="opacity:0.989" fill="#ababab" d="M 329.5,94.5 C 331.262,95.2623 332.262,96.5956 332.5,98.5C 331.883,98.6107 331.383,98.944 331,99.5C 330.667,209.5 330.333,319.5 330,429.5C 329.617,428.944 329.117,428.611 328.5,428.5C 328.587,425.261 327.92,422.261 326.5,419.5C 327.117,419.611 327.617,419.944 328,420.5C 328.169,311.764 328.669,203.097 329.5,94.5 Z"/></g>
<g><path style="opacity:0.765" fill="#a6a6a6" d="M 179.5,98.5 C 181.166,208.497 182.166,318.83 182.5,429.5C 183.186,426.277 184.186,423.277 185.5,420.5C 184.772,426.369 183.772,432.203 182.5,438C 182.643,440.151 183.643,441.818 185.5,443C 198.042,445.622 202.376,440.789 198.5,428.5C 199.117,428.611 199.617,428.944 200,429.5C 200.333,319.5 200.667,209.5 201,99.5C 201.383,98.944 201.883,98.6107 202.5,98.5C 203.666,215.333 203.833,332.333 203,449.5C 202.248,454.729 201.081,459.729 199.5,464.5C 198.671,457.679 198.171,450.679 198,443.5C 196.644,444.38 195.144,444.714 193.5,444.5C 191.167,444.5 188.833,444.5 186.5,444.5C 183.543,446.458 182.876,449.125 184.5,452.5C 184.044,456.678 183.377,460.678 182.5,464.5C 180.908,460.068 179.741,455.402 179,450.5C 178.167,332.999 178.334,215.666 179.5,98.5 Z"/></g>
<g><path style="opacity:0.765" fill="#a6a6a6" d="M 309.5,98.5 C 311.166,208.497 312.166,318.83 312.5,429.5C 313.186,426.277 314.186,423.277 315.5,420.5C 314.772,426.369 313.772,432.203 312.5,438C 312.643,440.151 313.643,441.818 315.5,443C 328.042,445.622 332.376,440.789 328.5,428.5C 329.117,428.611 329.617,428.944 330,429.5C 330.333,319.5 330.667,209.5 331,99.5C 331.383,98.944 331.883,98.6107 332.5,98.5C 333.666,215.333 333.833,332.333 333,449.5C 332.248,454.729 331.081,459.729 329.5,464.5C 328.671,457.679 328.171,450.679 328,443.5C 326.644,444.38 325.144,444.714 323.5,444.5C 321.167,444.5 318.833,444.5 316.5,444.5C 313.543,446.458 312.876,449.125 314.5,452.5C 314.044,456.678 313.377,460.678 312.5,464.5C 310.908,460.068 309.741,455.402 309,450.5C 308.167,332.999 308.334,215.666 309.5,98.5 Z"/></g>
<g><path style="opacity:0.994" fill="#b1b1b1" d="M 158.5,152.5 C 159.209,151.596 160.209,151.263 161.5,151.5C 161.83,241.436 162.83,331.102 164.5,420.5C 163.5,421.833 162.5,423.167 161.5,424.5C 160.179,421.402 159.512,417.902 159.5,414C 160.396,329.105 160.729,244.272 160.5,159.5C 160.071,156.971 159.404,154.638 158.5,152.5 Z"/></g>
<g><path style="opacity:0.997" fill="#b8b8b8" d="M 161.5,151.5 C 162.5,151.5 163.5,151.5 164.5,151.5C 164.5,240.833 164.5,330.167 164.5,419.5C 165.5,419.5 166.5,419.5 167.5,419.5C 167.5,330.167 167.5,240.833 167.5,151.5C 168.5,151.5 169.5,151.5 170.5,151.5C 170.17,241.769 169.17,331.769 167.5,421.5C 166.791,420.596 165.791,420.263 164.5,420.5C 162.83,331.102 161.83,241.436 161.5,151.5 Z"/></g>
<g><path style="opacity:0.998" fill="#bdbdbd" d="M 164.5,151.5 C 165.5,151.5 166.5,151.5 167.5,151.5C 167.5,240.833 167.5,330.167 167.5,419.5C 166.5,419.5 165.5,419.5 164.5,419.5C 164.5,330.167 164.5,240.833 164.5,151.5 Z"/></g>
<g><path style="opacity:0.996" fill="#b1b1b1" d="M 170.5,151.5 C 171.791,151.263 172.791,151.596 173.5,152.5C 172.667,243.666 172.167,334.999 172,426.5C 171.617,425.944 171.117,425.611 170.5,425.5C 169.5,424.167 168.5,422.833 167.5,421.5C 169.17,331.769 170.17,241.769 170.5,151.5 Z"/></g>
<g><path style="opacity:0.994" fill="#b1b1b1" d="M 338.5,152.5 C 339.209,151.596 340.209,151.263 341.5,151.5C 341.83,241.436 342.83,331.102 344.5,420.5C 343.5,421.833 342.5,423.167 341.5,424.5C 340.179,421.402 339.512,417.902 339.5,414C 340.396,329.105 340.729,244.272 340.5,159.5C 340.071,156.971 339.404,154.638 338.5,152.5 Z"/></g>
<g><path style="opacity:0.997" fill="#b8b8b8" d="M 341.5,151.5 C 342.5,151.5 343.5,151.5 344.5,151.5C 344.5,240.833 344.5,330.167 344.5,419.5C 345.5,419.5 346.5,419.5 347.5,419.5C 347.5,330.167 347.5,240.833 347.5,151.5C 348.5,151.5 349.5,151.5 350.5,151.5C 350.17,241.769 349.17,331.769 347.5,421.5C 346.791,420.596 345.791,420.263 344.5,420.5C 342.83,331.102 341.83,241.436 341.5,151.5 Z"/></g>
<g><path style="opacity:0.998" fill="#bdbdbd" d="M 344.5,151.5 C 345.5,151.5 346.5,151.5 347.5,151.5C 347.5,240.833 347.5,330.167 347.5,419.5C 346.5,419.5 345.5,419.5 344.5,419.5C 344.5,330.167 344.5,240.833 344.5,151.5 Z"/></g>
<g><path style="opacity:0.996" fill="#b1b1b1" d="M 350.5,151.5 C 351.791,151.263 352.791,151.596 353.5,152.5C 352.667,243.666 352.167,334.999 352,426.5C 351.617,425.944 351.117,425.611 350.5,425.5C 349.5,424.167 348.5,422.833 347.5,421.5C 349.17,331.769 350.17,241.769 350.5,151.5 Z"/></g>
<g><path style="opacity:0.984" fill="#aaaaaa" d="M 158.5,152.5 C 159.404,154.638 160.071,156.971 160.5,159.5C 160.729,244.272 160.396,329.105 159.5,414C 159.512,417.902 160.179,421.402 161.5,424.5C 160.226,426.993 159.56,429.659 159.5,432.5C 158.252,431.666 157.585,430.333 157.5,428.5C 157.535,341.243 157.869,254.077 158.5,167C 157.862,163.065 157.196,159.231 156.5,155.5C 156.427,153.973 157.094,152.973 158.5,152.5 Z"/></g>
<g><path style="opacity:0.987" fill="#aaaaaa" d="M 173.5,152.5 C 174.833,153.167 175.833,154.167 176.5,155.5C 175.883,155.611 175.383,155.944 175,156.5C 175.165,249.172 174.331,341.505 172.5,433.5C 172.416,430.673 171.75,428.006 170.5,425.5C 171.117,425.611 171.617,425.944 172,426.5C 172.167,334.999 172.667,243.666 173.5,152.5 Z"/></g>
<g><path style="opacity:0.984" fill="#aaaaaa" d="M 338.5,152.5 C 339.404,154.638 340.071,156.971 340.5,159.5C 340.729,244.272 340.396,329.105 339.5,414C 339.512,417.902 340.179,421.402 341.5,424.5C 340.226,426.993 339.56,429.659 339.5,432.5C 338.252,431.666 337.585,430.333 337.5,428.5C 337.535,341.243 337.869,254.077 338.5,167C 337.862,163.065 337.196,159.231 336.5,155.5C 336.427,153.973 337.094,152.973 338.5,152.5 Z"/></g>
<g><path style="opacity:0.987" fill="#aaaaaa" d="M 353.5,152.5 C 354.833,153.167 355.833,154.167 356.5,155.5C 355.883,155.611 355.383,155.944 355,156.5C 355.165,249.172 354.331,341.505 352.5,433.5C 352.416,430.673 351.75,428.006 350.5,425.5C 351.117,425.611 351.617,425.944 352,426.5C 352.167,334.999 352.667,243.666 353.5,152.5 Z"/></g>
<g><path style="opacity:0.566" fill="#a5a5a5" d="M 156.5,155.5 C 157.196,159.231 157.862,163.065 158.5,167C 157.869,254.077 157.535,341.243 157.5,428.5C 157.585,430.333 158.252,431.666 159.5,432.5C 159.681,435.397 159.348,438.23 158.5,441C 159.315,442.643 160.315,444.143 161.5,445.5C 160.351,445.791 159.684,446.624 159.5,448C 160.431,453.345 160.097,458.511 158.5,463.5C 157.239,460.742 156.406,457.742 156,454.5C 155.168,354.666 155.334,254.999 156.5,155.5 Z"/></g>
<g><path style="opacity:0.688" fill="#a5a5a5" d="M 176.5,155.5 C 176.667,255.167 176.5,354.834 176,454.5C 175.594,457.742 174.761,460.742 173.5,463.5C 173.147,457.265 172.147,451.265 170.5,445.5C 172.443,444.709 173.443,443.209 173.5,441C 172.841,438.538 172.507,436.038 172.5,433.5C 174.331,341.505 175.165,249.172 175,156.5C 175.383,155.944 175.883,155.611 176.5,155.5 Z"/></g>
<g><path style="opacity:0.566" fill="#a5a5a5" d="M 336.5,155.5 C 337.196,159.231 337.862,163.065 338.5,167C 337.869,254.077 337.535,341.243 337.5,428.5C 337.585,430.333 338.252,431.666 339.5,432.5C 339.681,435.397 339.348,438.23 338.5,441C 339.315,442.643 340.315,444.143 341.5,445.5C 340.351,445.791 339.684,446.624 339.5,448C 340.431,453.345 340.097,458.511 338.5,463.5C 337.239,460.742 336.406,457.742 336,454.5C 335.168,354.666 335.334,254.999 336.5,155.5 Z"/></g>
<g><path style="opacity:0.688" fill="#a5a5a5" d="M 356.5,155.5 C 356.667,255.167 356.5,354.834 356,454.5C 355.594,457.742 354.761,460.742 353.5,463.5C 353.147,457.265 352.147,451.265 350.5,445.5C 352.443,444.709 353.443,443.209 353.5,441C 352.841,438.538 352.507,436.038 352.5,433.5C 354.331,341.505 355.165,249.172 355,156.5C 355.383,155.944 355.883,155.611 356.5,155.5 Z"/></g>
<g><path style="opacity:0.992" fill="#b0b0b0" d="M 82.5,226.5 C 82.1674,300.335 82.5008,374.002 83.5,447.5C 83.1667,448.167 82.8333,448.833 82.5,449.5C 81.2749,448.848 80.6083,447.681 80.5,446C 80.8853,374.557 80.8853,301.724 80.5,227.5C 80.8417,226.662 81.5084,226.328 82.5,226.5 Z"/></g>
<g><path style="opacity:0.998" fill="#b7b7b7" d="M 82.5,226.5 C 83.1667,226.5 83.8333,226.5 84.5,226.5C 84.5,299.833 84.5,373.167 84.5,446.5C 84.5,447.167 84.1667,447.5 83.5,447.5C 82.5008,374.002 82.1674,300.335 82.5,226.5 Z"/></g>
<g><path style="opacity:0.998" fill="#bdbdbd" d="M 84.5,226.5 C 85.5,226.5 86.5,226.5 87.5,226.5C 87.5035,299.854 87.1701,373.188 86.5,446.5C 85.8333,446.5 85.1667,446.5 84.5,446.5C 84.5,373.167 84.5,299.833 84.5,226.5 Z"/></g>
<g><path style="opacity:0.996" fill="#b8b8b8" d="M 87.5,226.5 C 88.1667,226.5 88.8333,226.5 89.5,226.5C 88.8364,300.264 88.1697,373.931 87.5,447.5C 86.8333,447.5 86.5,447.167 86.5,446.5C 87.1701,373.188 87.5035,299.854 87.5,226.5 Z"/></g>
<g><path style="opacity:0.998" fill="#b2b2b2" d="M 89.5,226.5 C 90.1667,226.5 90.5,226.833 90.5,227.5C 90.8326,302.335 90.4992,377.002 89.5,451.5C 88.8333,450.167 88.1667,448.833 87.5,447.5C 88.1697,373.931 88.8364,300.264 89.5,226.5 Z"/></g>
<g><path style="opacity:0.992" fill="#b0b0b0" d="M 421.5,226.5 C 421.167,300.335 421.501,374.002 422.5,447.5C 422.167,448.167 421.833,448.833 421.5,449.5C 420.275,448.848 419.608,447.681 419.5,446C 419.885,374.557 419.885,301.724 419.5,227.5C 419.842,226.662 420.508,226.328 421.5,226.5 Z"/></g>
<g><path style="opacity:0.998" fill="#b7b7b7" d="M 421.5,226.5 C 422.167,226.5 422.833,226.5 423.5,226.5C 423.5,299.833 423.5,373.167 423.5,446.5C 423.5,447.167 423.167,447.5 422.5,447.5C 421.501,374.002 421.167,300.335 421.5,226.5 Z"/></g>
<g><path style="opacity:0.998" fill="#bdbdbd" d="M 423.5,226.5 C 424.5,226.5 425.5,226.5 426.5,226.5C 426.503,299.854 426.17,373.188 425.5,446.5C 424.833,446.5 424.167,446.5 423.5,446.5C 423.5,373.167 423.5,299.833 423.5,226.5 Z"/></g>
<g><path style="opacity:0.996" fill="#b8b8b8" d="M 426.5,226.5 C 427.167,226.5 427.833,226.5 428.5,226.5C 427.836,300.264 427.17,373.931 426.5,447.5C 425.833,447.5 425.5,447.167 425.5,446.5C 426.17,373.188 426.503,299.854 426.5,226.5 Z"/></g>
<g><path style="opacity:0.998" fill="#b2b2b2" d="M 428.5,226.5 C 429.167,226.5 429.5,226.833 429.5,227.5C 429.833,302.335 429.499,377.002 428.5,451.5C 427.833,450.167 427.167,448.833 426.5,447.5C 427.17,373.931 427.836,300.264 428.5,226.5 Z"/></g>
<g><path style="opacity:0.989" fill="#ababab" d="M 80.5,227.5 C 80.8853,301.724 80.8853,374.557 80.5,446C 80.6083,447.681 81.2749,448.848 82.5,449.5C 81.2264,451.993 80.5597,454.659 80.5,457.5C 79.8333,381.833 79.1667,306.167 78.5,230.5C 78.427,228.973 79.0937,227.973 80.5,227.5 Z"/></g>
<g><path style="opacity:0.993" fill="#ababab" d="M 90.5,227.5 C 92.0269,227.427 93.0269,228.094 93.5,229.5C 92.8333,306.833 92.1667,384.167 91.5,461.5C 91.2122,458.061 90.5456,454.728 89.5,451.5C 90.4992,377.002 90.8326,302.335 90.5,227.5 Z"/></g>
<g><path style="opacity:0.989" fill="#ababab" d="M 419.5,227.5 C 419.885,301.724 419.885,374.557 419.5,446C 419.608,447.681 420.275,448.848 421.5,449.5C 420.226,451.993 419.56,454.659 419.5,457.5C 418.833,381.833 418.167,306.167 417.5,230.5C 417.427,228.973 418.094,227.973 419.5,227.5 Z"/></g>
<g><path style="opacity:0.993" fill="#ababab" d="M 429.5,227.5 C 431.027,227.427 432.027,228.094 432.5,229.5C 431.833,306.833 431.167,384.167 430.5,461.5C 430.212,458.061 429.546,454.728 428.5,451.5C 429.499,377.002 429.833,302.335 429.5,227.5 Z"/></g>
<g><path style="opacity:0.598" fill="#a5a5a5" d="M 93.5,229.5 C 94.6607,308.46 94.8274,387.46 94,466.5C 93.5735,471.584 92.7402,476.584 91.5,481.5C 90.5128,476.695 90.1795,471.695 90.5,466.5C 91.3007,464.958 91.634,463.292 91.5,461.5C 92.1667,384.167 92.8333,306.833 93.5,229.5 Z"/></g>
<g><path style="opacity:0.598" fill="#a5a5a5" d="M 432.5,229.5 C 433.661,308.46 433.827,387.46 433,466.5C 432.574,471.584 431.74,476.584 430.5,481.5C 429.513,476.695 429.179,471.695 429.5,466.5C 430.301,464.958 430.634,463.292 430.5,461.5C 431.167,384.167 431.833,306.833 432.5,229.5 Z"/></g>
<g><path style="opacity:0.842" fill="#a6a6a6" d="M 78.5,230.5 C 79.1667,306.167 79.8333,381.833 80.5,457.5C 78.5023,461.476 79.169,464.81 82.5,467.5C 80.5636,471.715 79.8969,476.381 80.5,481.5C 79.3611,477.699 78.5277,473.699 78,469.5C 77.1699,389.763 77.3366,310.097 78.5,230.5 Z"/></g>
<g><path style="opacity:0.842" fill="#a6a6a6" d="M 417.5,230.5 C 418.167,306.167 418.833,381.833 419.5,457.5C 417.502,461.476 418.169,464.81 421.5,467.5C 419.564,471.715 418.897,476.381 419.5,481.5C 418.361,477.699 417.528,473.699 417,469.5C 416.17,389.763 416.337,310.097 417.5,230.5 Z"/></g>
<g><path style="opacity:0.996" fill="#b2b2b2" d="M 62.5,246.5 C 63.4963,314.096 63.8297,381.762 63.5,449.5C 63.6716,450.492 63.3382,451.158 62.5,451.5C 61.5008,383.669 61.1675,315.669 61.5,247.5C 61.5,246.833 61.8333,246.5 62.5,246.5 Z"/></g>
<g><path style="opacity:0.993" fill="#b8b8b8" d="M 62.5,246.5 C 63.1667,246.5 63.8333,246.5 64.5,246.5C 64.8284,306.323 64.8284,366.156 64.5,426C 64.5344,433.735 65.201,441.235 66.5,448.5C 65.391,448.557 64.391,448.89 63.5,449.5C 63.8297,381.762 63.4963,314.096 62.5,246.5 Z"/></g>
<g><path style="opacity:0.998" fill="#bdbdbd" d="M 64.5,246.5 C 65.5,246.5 66.5,246.5 67.5,246.5C 67.8325,314.002 67.4992,381.335 66.5,448.5C 65.201,441.235 64.5344,433.735 64.5,426C 64.8284,366.156 64.8284,306.323 64.5,246.5 Z"/></g>
<g><path style="opacity:0.994" fill="#b8b8b8" d="M 67.5,246.5 C 68.1667,246.5 68.8333,246.5 69.5,246.5C 68.8366,314.264 68.17,381.931 67.5,449.5C 66.8333,449.5 66.5,449.167 66.5,448.5C 67.4992,381.335 67.8325,314.002 67.5,246.5 Z"/></g>
<g><path style="opacity:0.997" fill="#b2b2b2" d="M 69.5,246.5 C 70.1667,246.5 70.5,246.833 70.5,247.5C 70.8325,315.669 70.4992,383.669 69.5,451.5C 68.5,451.167 67.8333,450.5 67.5,449.5C 68.17,381.931 68.8366,314.264 69.5,246.5 Z"/></g>
<g><path style="opacity:0.993" fill="#b0b0b0" d="M 101.5,246.5 C 102.163,314.264 102.83,381.931 103.5,449.5C 103.5,450.167 103.167,450.5 102.5,450.5C 101.17,444.705 100.504,438.538 100.5,432C 101.07,371.144 101.07,309.644 100.5,247.5C 100.5,246.833 100.833,246.5 101.5,246.5 Z"/></g>
<g><path style="opacity:0.997" fill="#b8b8b8" d="M 101.5,246.5 C 102.5,246.5 103.5,246.5 104.5,246.5C 105.167,514.5 105.833,514.5 106.5,246.5C 107.167,246.5 107.833,246.5 108.5,246.5C 108.833,314.335 108.499,382.002 107.5,449.5C 106.167,448.167 104.833,448.167 103.5,449.5C 102.83,381.931 102.163,314.264 101.5,246.5 Z"/></g>
<g><path style="opacity:0.997" fill="#bebebe" d="M 104.5,246.5 C 105.167,246.5 105.833,246.5 106.5,246.5C 105.833,514.5 105.167,514.5 104.5,246.5 Z"/></g>
<g><path style="opacity:0.993" fill="#b0b0b0" d="M 108.5,246.5 C 109.492,246.328 110.158,246.662 110.5,247.5C 111.163,316.175 110.497,384.508 108.5,452.5C 108.443,451.391 108.11,450.391 107.5,449.5C 108.499,382.002 108.833,314.335 108.5,246.5 Z"/></g>
<g><path style="opacity:0.996" fill="#b2b2b2" d="M 401.5,246.5 C 402.496,314.096 402.83,381.762 402.5,449.5C 402.672,450.492 402.338,451.158 401.5,451.5C 400.501,383.669 400.167,315.669 400.5,247.5C 400.5,246.833 400.833,246.5 401.5,246.5 Z"/></g>
<g><path style="opacity:0.993" fill="#b8b8b8" d="M 401.5,246.5 C 402.167,246.5 402.833,246.5 403.5,246.5C 403.828,306.323 403.828,366.156 403.5,426C 403.534,433.735 404.201,441.235 405.5,448.5C 404.391,448.557 403.391,448.89 402.5,449.5C 402.83,381.762 402.496,314.096 401.5,246.5 Z"/></g>
<g><path style="opacity:0.998" fill="#bdbdbd" d="M 403.5,246.5 C 404.5,246.5 405.5,246.5 406.5,246.5C 406.832,314.002 406.499,381.335 405.5,448.5C 404.201,441.235 403.534,433.735 403.5,426C 403.828,366.156 403.828,306.323 403.5,246.5 Z"/></g>
<g><path style="opacity:0.994" fill="#b8b8b8" d="M 406.5,246.5 C 407.167,246.5 407.833,246.5 408.5,246.5C 407.837,314.264 407.17,381.931 406.5,449.5C 405.833,449.5 405.5,449.167 405.5,448.5C 406.499,381.335 406.832,314.002 406.5,246.5 Z"/></g>
<g><path style="opacity:0.997" fill="#b2b2b2" d="M 408.5,246.5 C 409.167,246.5 409.5,246.833 409.5,247.5C 409.833,315.669 409.499,383.669 408.5,451.5C 407.5,451.167 406.833,450.5 406.5,449.5C 407.17,381.931 407.837,314.264 408.5,246.5 Z"/></g>
<g><path style="opacity:0.993" fill="#b0b0b0" d="M 440.5,246.5 C 441.163,314.264 441.83,381.931 442.5,449.5C 442.5,450.167 442.167,450.5 441.5,450.5C 440.17,444.705 439.504,438.538 439.5,432C 440.07,371.144 440.07,309.644 439.5,247.5C 439.5,246.833 439.833,246.5 440.5,246.5 Z"/></g>
<g><path style="opacity:0.997" fill="#b8b8b8" d="M 440.5,246.5 C 441.5,246.5 442.5,246.5 443.5,246.5C 444.167,514.5 444.833,514.5 445.5,246.5C 446.167,246.5 446.833,246.5 447.5,246.5C 447.833,314.335 447.499,382.002 446.5,449.5C 445.167,448.167 443.833,448.167 442.5,449.5C 441.83,381.931 441.163,314.264 440.5,246.5 Z"/></g>
<g><path style="opacity:0.997" fill="#bebebe" d="M 443.5,246.5 C 444.167,246.5 444.833,246.5 445.5,246.5C 444.833,514.5 444.167,514.5 443.5,246.5 Z"/></g>
<g><path style="opacity:0.993" fill="#b0b0b0" d="M 447.5,246.5 C 448.492,246.328 449.158,246.662 449.5,247.5C 450.163,316.175 449.497,384.508 447.5,452.5C 447.443,451.391 447.11,450.391 446.5,449.5C 447.499,382.002 447.833,314.335 447.5,246.5 Z"/></g>
<g><path style="opacity:0.99" fill="#aaaaaa" d="M 61.5,247.5 C 61.1675,315.669 61.5008,383.669 62.5,451.5C 62.0074,453.806 61.6741,456.139 61.5,458.5C 60.7321,459.263 60.2321,460.263 60,461.5C 59.8333,460 59.6667,458.5 59.5,457C 60.5632,387.712 60.5632,318.546 59.5,249.5C 59.5,248.167 60.1667,247.5 61.5,247.5 Z"/></g>
<g><path style="opacity:0.994" fill="#ababab" d="M 70.5,247.5 C 72.0269,247.427 73.0269,248.094 73.5,249.5C 72.8333,320.5 72.1667,391.5 71.5,462.5C 71.0889,458.779 70.4222,455.112 69.5,451.5C 70.4992,383.669 70.8325,315.669 70.5,247.5 Z"/></g>
<g><path style="opacity:0.99" fill="#ababab" d="M 100.5,247.5 C 101.07,309.644 101.07,371.144 100.5,432C 100.504,438.538 101.17,444.705 102.5,450.5C 101.25,453.006 100.584,455.673 100.5,458.5C 99.8333,388.833 99.1667,319.167 98.5,249.5C 98.8333,248.5 99.5,247.833 100.5,247.5 Z"/></g>
<g><path style="opacity:0.989" fill="#aaaaaa" d="M 110.5,247.5 C 111.5,247.833 112.167,248.5 112.5,249.5C 111.833,319.167 111.167,388.833 110.5,458.5C 109.833,456.5 109.167,454.5 108.5,452.5C 110.497,384.508 111.163,316.175 110.5,247.5 Z"/></g>
<g><path style="opacity:0.99" fill="#aaaaaa" d="M 400.5,247.5 C 400.167,315.669 400.501,383.669 401.5,451.5C 401.007,453.806 400.674,456.139 400.5,458.5C 399.732,459.263 399.232,460.263 399,461.5C 398.833,460 398.667,458.5 398.5,457C 399.563,387.712 399.563,318.546 398.5,249.5C 398.5,248.167 399.167,247.5 400.5,247.5 Z"/></g>
<g><path style="opacity:0.994" fill="#ababab" d="M 409.5,247.5 C 411.027,247.427 412.027,248.094 412.5,249.5C 411.833,320.5 411.167,391.5 410.5,462.5C 410.089,458.779 409.422,455.112 408.5,451.5C 409.499,383.669 409.833,315.669 409.5,247.5 Z"/></g>
<g><path style="opacity:0.99" fill="#ababab" d="M 439.5,247.5 C 440.07,309.644 440.07,371.144 439.5,432C 439.504,438.538 440.17,444.705 441.5,450.5C 440.25,453.006 439.584,455.673 439.5,458.5C 438.833,388.833 438.167,319.167 437.5,249.5C 437.833,248.5 438.5,247.833 439.5,247.5 Z"/></g>
<g><path style="opacity:0.989" fill="#aaaaaa" d="M 449.5,247.5 C 450.5,247.833 451.167,248.5 451.5,249.5C 450.833,319.167 450.167,388.833 449.5,458.5C 448.833,456.5 448.167,454.5 447.5,452.5C 449.497,384.508 450.163,316.175 449.5,247.5 Z"/></g>
<g><path style="opacity:0.479" fill="#a5a5a5" d="M 59.5,249.5 C 60.5632,318.546 60.5632,387.712 59.5,457C 59.6667,458.5 59.8333,460 60,461.5C 60.2321,460.263 60.7321,459.263 61.5,458.5C 60.8968,461.041 60.8968,463.374 61.5,465.5C 61.8333,466.167 62.1667,466.833 62.5,467.5C 61.8333,471.833 61.1667,476.167 60.5,480.5C 59.9897,476.44 59.1564,472.44 58,468.5C 57.3333,396.167 57.3333,323.833 58,251.5C 58.2784,250.584 58.7784,249.918 59.5,249.5 Z"/></g>
<g><path style="opacity:0.542" fill="#a5a5a5" d="M 73.5,249.5 C 74.6631,322.763 74.8298,396.096 74,469.5C 73.2627,473.207 72.4293,476.873 71.5,480.5C 70.8333,476.167 70.1667,471.833 69.5,467.5C 69.8333,466.833 70.1667,466.167 70.5,465.5C 71.404,464.791 71.7373,463.791 71.5,462.5C 72.1667,391.5 72.8333,320.5 73.5,249.5 Z"/></g>
<g><path style="opacity:0.662" fill="#a6a6a6" d="M 98.5,249.5 C 99.1667,319.167 99.8333,388.833 100.5,458.5C 99.8968,461.041 99.8968,463.374 100.5,465.5C 101.167,466.167 101.833,466.833 102.5,467.5C 101.252,468.334 100.585,469.667 100.5,471.5C 101.819,474.508 101.819,477.508 100.5,480.5C 99.037,477.797 98.2037,474.797 98,471.5C 97.1678,397.332 97.3345,323.332 98.5,249.5 Z"/></g>
<g><path style="opacity:0.632" fill="#a6a6a6" d="M 112.5,249.5 C 113.663,323.097 113.83,396.763 113,470.5C 112.689,474.09 111.856,477.423 110.5,480.5C 111.097,475.706 110.43,471.373 108.5,467.5C 110.242,464.855 110.909,461.855 110.5,458.5C 111.167,388.833 111.833,319.167 112.5,249.5 Z"/></g>
<g><path style="opacity:0.479" fill="#a5a5a5" d="M 398.5,249.5 C 399.563,318.546 399.563,387.712 398.5,457C 398.667,458.5 398.833,460 399,461.5C 399.232,460.263 399.732,459.263 400.5,458.5C 399.897,461.041 399.897,463.374 400.5,465.5C 400.833,466.167 401.167,466.833 401.5,467.5C 400.833,471.833 400.167,476.167 399.5,480.5C 398.99,476.44 398.156,472.44 397,468.5C 396.333,396.167 396.333,323.833 397,251.5C 397.278,250.584 397.778,249.918 398.5,249.5 Z"/></g>
<g><path style="opacity:0.542" fill="#a5a5a5" d="M 412.5,249.5 C 413.663,322.763 413.83,396.096 413,469.5C 412.263,473.207 411.429,476.873 410.5,480.5C 409.833,476.167 409.167,471.833 408.5,467.5C 408.833,466.833 409.167,466.167 409.5,465.5C 410.404,464.791 410.737,463.791 410.5,462.5C 411.167,391.5 411.833,320.5 412.5,249.5 Z"/></g>
<g><path style="opacity:0.662" fill="#a6a6a6" d="M 437.5,249.5 C 438.167,319.167 438.833,388.833 439.5,458.5C 438.897,461.041 438.897,463.374 439.5,465.5C 440.167,466.167 440.833,466.833 441.5,467.5C 440.252,468.334 439.585,469.667 439.5,471.5C 440.819,474.508 440.819,477.508 439.5,480.5C 438.037,477.797 437.204,474.797 437,471.5C 436.168,397.332 436.334,323.332 437.5,249.5 Z"/></g>
<g><path style="opacity:0.632" fill="#a6a6a6" d="M 451.5,249.5 C 452.663,323.097 452.83,396.763 452,470.5C 451.689,474.09 450.856,477.423 449.5,480.5C 450.097,475.706 449.43,471.373 447.5,467.5C 449.242,464.855 449.909,461.855 449.5,458.5C 450.167,388.833 450.833,319.167 451.5,249.5 Z"/></g>
<g><path style="opacity:0.985" fill="#acacac" d="M 45.5,270.5 C 45.1676,331.336 45.5009,392.002 46.5,452.5C 46.1667,453.833 45.8333,455.167 45.5,456.5C 44.7326,455.828 44.0659,454.995 43.5,454C 44.7714,393.776 44.7714,333.276 43.5,272.5C 43.5,271.167 44.1667,270.5 45.5,270.5 Z"/></g>
<g><path style="opacity:0.998" fill="#b3b3b3" d="M 45.5,270.5 C 45.8333,270.5 46.1667,270.5 46.5,270.5C 47.1629,330.598 47.8296,390.598 48.5,450.5C 48.1667,451.5 47.5,452.167 46.5,452.5C 45.5009,392.002 45.1676,331.336 45.5,270.5 Z"/></g>
<g><path style="opacity:0.997" fill="#b9b9b9" d="M 46.5,270.5 C 47.1667,270.5 47.8333,270.5 48.5,270.5C 48.1708,330.571 48.5041,390.571 49.5,450.5C 49.1667,450.5 48.8333,450.5 48.5,450.5C 47.8296,390.598 47.1629,330.598 46.5,270.5 Z"/></g>
<g><path style="opacity:0.999" fill="#bcbcbc" d="M 48.5,270.5 C 49.8333,270.5 51.1667,270.5 52.5,270.5C 52.5569,330.475 51.8902,390.475 50.5,450.5C 50.1667,450.5 49.8333,450.5 49.5,450.5C 48.5041,390.571 48.1708,330.571 48.5,270.5 Z"/></g>
<g><path style="opacity:0.997" fill="#b3b2b3" d="M 52.5,270.5 C 52.8333,270.5 53.1667,270.5 53.5,270.5C 53.8324,331.669 53.4991,392.669 52.5,453.5C 51.8333,452.5 51.1667,451.5 50.5,450.5C 51.8902,390.475 52.5569,330.475 52.5,270.5 Z"/></g>
<g><path style="opacity:0.998" fill="#b2b2b2" d="M 118.5,270.5 C 119.167,270.5 119.833,270.5 120.5,270.5C 120.168,330.669 120.501,390.669 121.5,450.5C 121.167,451.5 120.5,452.167 119.5,452.5C 118.501,392.002 118.168,331.336 118.5,270.5 Z"/></g>
<g><path style="opacity:0.999" fill="#b9b9b9" d="M 120.5,270.5 C 120.833,270.5 121.167,270.5 121.5,270.5C 121.171,330.571 121.504,390.571 122.5,450.5C 122.167,450.5 121.833,450.5 121.5,450.5C 120.501,390.669 120.168,330.669 120.5,270.5 Z"/></g>
<g><path style="opacity:0.999" fill="#bcbcbc" d="M 121.5,270.5 C 122.833,270.5 124.167,270.5 125.5,270.5C 125.557,330.475 124.89,390.475 123.5,450.5C 123.167,450.5 122.833,450.5 122.5,450.5C 121.504,390.571 121.171,330.571 121.5,270.5 Z"/></g>
<g><path style="opacity:0.997" fill="#b3b3b3" d="M 125.5,270.5 C 125.833,270.5 126.167,270.5 126.5,270.5C 126.832,331.669 126.499,392.669 125.5,453.5C 124.833,452.5 124.167,451.5 123.5,450.5C 124.89,390.475 125.557,330.475 125.5,270.5 Z"/></g>
<g><path style="opacity:0.988" fill="#ababaa" d="M 126.5,270.5 C 128.5,270.5 129.5,271.5 129.5,273.5C 129.166,335.34 128.166,397.007 126.5,458.5C 126.371,456.784 126.038,455.117 125.5,453.5C 126.499,392.669 126.832,331.669 126.5,270.5 Z"/></g>
<g><path style="opacity:0.985" fill="#acacac" d="M 384.5,270.5 C 384.168,331.336 384.501,392.002 385.5,452.5C 385.167,453.833 384.833,455.167 384.5,456.5C 383.733,455.828 383.066,454.995 382.5,454C 383.771,393.776 383.771,333.276 382.5,272.5C 382.5,271.167 383.167,270.5 384.5,270.5 Z"/></g>
<g><path style="opacity:0.998" fill="#b3b3b3" d="M 384.5,270.5 C 384.833,270.5 385.167,270.5 385.5,270.5C 386.163,330.598 386.83,390.598 387.5,450.5C 387.167,451.5 386.5,452.167 385.5,452.5C 384.501,392.002 384.168,331.336 384.5,270.5 Z"/></g>
<g><path style="opacity:0.997" fill="#b9b9b9" d="M 385.5,270.5 C 386.167,270.5 386.833,270.5 387.5,270.5C 387.171,330.571 387.504,390.571 388.5,450.5C 388.167,450.5 387.833,450.5 387.5,450.5C 386.83,390.598 386.163,330.598 385.5,270.5 Z"/></g>
<g><path style="opacity:0.999" fill="#bcbcbc" d="M 387.5,270.5 C 388.833,270.5 390.167,270.5 391.5,270.5C 391.557,330.475 390.89,390.475 389.5,450.5C 389.167,450.5 388.833,450.5 388.5,450.5C 387.504,390.571 387.171,330.571 387.5,270.5 Z"/></g>
<g><path style="opacity:0.997" fill="#b3b2b3" d="M 391.5,270.5 C 391.833,270.5 392.167,270.5 392.5,270.5C 392.832,331.669 392.499,392.669 391.5,453.5C 390.833,452.5 390.167,451.5 389.5,450.5C 390.89,390.475 391.557,330.475 391.5,270.5 Z"/></g>
<g><path style="opacity:0.998" fill="#b2b2b2" d="M 457.5,270.5 C 458.167,270.5 458.833,270.5 459.5,270.5C 459.168,330.669 459.501,390.669 460.5,450.5C 460.167,451.5 459.5,452.167 458.5,452.5C 457.501,392.002 457.168,331.336 457.5,270.5 Z"/></g>
<g><path style="opacity:0.999" fill="#b9b9b9" d="M 459.5,270.5 C 459.833,270.5 460.167,270.5 460.5,270.5C 460.171,330.571 460.504,390.571 461.5,450.5C 461.167,450.5 460.833,450.5 460.5,450.5C 459.501,390.669 459.168,330.669 459.5,270.5 Z"/></g>
<g><path style="opacity:0.999" fill="#bcbcbc" d="M 460.5,270.5 C 461.833,270.5 463.167,270.5 464.5,270.5C 464.557,330.475 463.89,390.475 462.5,450.5C 462.167,450.5 461.833,450.5 461.5,450.5C 460.504,390.571 460.171,330.571 460.5,270.5 Z"/></g>
<g><path style="opacity:0.997" fill="#b3b3b3" d="M 464.5,270.5 C 464.833,270.5 465.167,270.5 465.5,270.5C 465.832,331.669 465.499,392.669 464.5,453.5C 463.833,452.5 463.167,451.5 462.5,450.5C 463.89,390.475 464.557,330.475 464.5,270.5 Z"/></g>
<g><path style="opacity:0.988" fill="#ababaa" d="M 465.5,270.5 C 467.5,270.5 468.5,271.5 468.5,273.5C 468.166,335.34 467.166,397.007 465.5,458.5C 465.371,456.784 465.038,455.117 464.5,453.5C 465.499,392.669 465.832,331.669 465.5,270.5 Z"/></g>
<g><path style="opacity:0.986" fill="#acacac" d="M 53.5,270.5 C 54.8333,271.167 55.8333,272.167 56.5,273.5C 54.8343,334.66 53.8343,395.993 53.5,457.5C 53.1667,456.167 52.8333,454.833 52.5,453.5C 53.4991,392.669 53.8324,331.669 53.5,270.5 Z"/></g>
<g><path style="opacity:0.989" fill="#acacac" d="M 118.5,270.5 C 118.168,331.336 118.501,392.002 119.5,452.5C 118.85,454.435 118.517,456.435 118.5,458.5C 117.83,396.598 117.163,334.598 116.5,272.5C 116.833,271.5 117.5,270.833 118.5,270.5 Z"/></g>
<g><path style="opacity:0.986" fill="#acacac" d="M 392.5,270.5 C 393.833,271.167 394.833,272.167 395.5,273.5C 393.834,334.66 392.834,395.993 392.5,457.5C 392.167,456.167 391.833,454.833 391.5,453.5C 392.499,392.669 392.832,331.669 392.5,270.5 Z"/></g>
<g><path style="opacity:0.989" fill="#acacac" d="M 457.5,270.5 C 457.168,331.336 457.501,392.002 458.5,452.5C 457.85,454.435 457.517,456.435 457.5,458.5C 456.83,396.598 456.163,334.598 455.5,272.5C 455.833,271.5 456.5,270.833 457.5,270.5 Z"/></g>
<g><path style="opacity:0.601" fill="#a6a6a6" d="M 43.5,272.5 C 44.7714,333.276 44.7714,393.776 43.5,454C 44.0659,454.995 44.7326,455.828 45.5,456.5C 43.8756,460.444 44.2089,464.111 46.5,467.5C 45.7752,471.395 45.1086,475.395 44.5,479.5C 43.6909,477.708 43.1909,475.708 43,473.5C 42.1679,406.332 42.3346,339.332 43.5,272.5 Z"/></g>
<g><path style="opacity:0.687" fill="#a6a6a6" d="M 116.5,272.5 C 117.163,334.598 117.83,396.598 118.5,458.5C 116.985,461.737 117.319,464.737 119.5,467.5C 118.833,471.5 118.167,475.5 117.5,479.5C 116.815,477.586 116.315,475.586 116,473.5C 115.168,406.332 115.335,339.332 116.5,272.5 Z"/></g>
<g><path style="opacity:0.601" fill="#a6a6a6" d="M 382.5,272.5 C 383.771,333.276 383.771,393.776 382.5,454C 383.066,454.995 383.733,455.828 384.5,456.5C 382.876,460.444 383.209,464.111 385.5,467.5C 384.775,471.395 384.109,475.395 383.5,479.5C 382.691,477.708 382.191,475.708 382,473.5C 381.168,406.332 381.335,339.332 382.5,272.5 Z"/></g>
<g><path style="opacity:0.687" fill="#a6a6a6" d="M 455.5,272.5 C 456.163,334.598 456.83,396.598 457.5,458.5C 455.985,461.737 456.319,464.737 458.5,467.5C 457.833,471.5 457.167,475.5 456.5,479.5C 455.815,477.586 455.315,475.586 455,473.5C 454.168,406.332 454.335,339.332 455.5,272.5 Z"/></g>
<g><path style="opacity:0.777" fill="#a6a6a6" d="M 56.5,273.5 C 56.6667,340.167 56.5,406.834 56,473.5C 55.8091,475.708 55.3091,477.708 54.5,479.5C 53.8333,475.5 53.1667,471.5 52.5,467.5C 53.1408,466.518 53.8075,465.518 54.5,464.5C 53.6258,462.253 53.2924,459.92 53.5,457.5C 53.8343,395.993 54.8343,334.66 56.5,273.5 Z"/></g>
<g><path style="opacity:0.669" fill="#a5a5a5" d="M 129.5,273.5 C 129.667,340.167 129.5,406.834 129,473.5C 128.809,475.708 128.309,477.708 127.5,479.5C 126.891,475.395 126.225,471.395 125.5,467.5C 127.681,464.737 128.015,461.737 126.5,458.5C 128.166,397.007 129.166,335.34 129.5,273.5 Z"/></g>
<g><path style="opacity:0.777" fill="#a6a6a6" d="M 395.5,273.5 C 395.667,340.167 395.5,406.834 395,473.5C 394.809,475.708 394.309,477.708 393.5,479.5C 392.833,475.5 392.167,471.5 391.5,467.5C 392.141,466.518 392.807,465.518 393.5,464.5C 392.626,462.253 392.292,459.92 392.5,457.5C 392.834,395.993 393.834,334.66 395.5,273.5 Z"/></g>
<g><path style="opacity:0.669" fill="#a5a5a5" d="M 468.5,273.5 C 468.667,340.167 468.5,406.834 468,473.5C 467.809,475.708 467.309,477.708 466.5,479.5C 465.891,475.395 465.225,471.395 464.5,467.5C 466.681,464.737 467.015,461.737 465.5,458.5C 467.166,397.007 468.166,335.34 468.5,273.5 Z"/></g>
<g><path style="opacity:0.99" fill="#b0b0b0" d="M 32.5,302.5 C 33.1623,353.264 33.8289,403.931 34.5,454.5C 34.1667,455.5 33.5,456.167 32.5,456.5C 31.9498,406.125 31.6164,355.125 31.5,303.5C 31.5,302.833 31.8333,302.5 32.5,302.5 Z"/></g>
<g><path style="opacity:0.995" fill="#b8b8b8" d="M 32.5,302.5 C 33.1667,302.5 33.8333,302.5 34.5,302.5C 35.1667,503.833 35.8333,503.833 36.5,302.5C 36.8333,302.5 37.1667,302.5 37.5,302.5C 37.8322,353.336 37.4989,404.003 36.5,454.5C 35.8333,454.5 35.1667,454.5 34.5,454.5C 33.8289,403.931 33.1623,353.264 32.5,302.5 Z"/></g>
<g><path style="opacity:0.995" fill="#bdbdbd" d="M 34.5,302.5 C 35.1667,302.5 35.8333,302.5 36.5,302.5C 35.8333,503.833 35.1667,503.833 34.5,302.5 Z"/></g>
<g><path style="opacity:0.983" fill="#b2b2b2" d="M 37.5,302.5 C 38.4916,302.328 39.1583,302.662 39.5,303.5C 38.8377,354.598 38.171,405.598 37.5,456.5C 37.1667,455.833 36.8333,455.167 36.5,454.5C 37.4989,404.003 37.8322,353.336 37.5,302.5 Z"/></g>
<g><path style="opacity:0.982" fill="#b2b2b2" d="M 134.5,302.5 C 134.168,353.336 134.501,404.003 135.5,454.5C 135.5,455.167 135.167,455.5 134.5,455.5C 133.829,404.931 133.162,354.264 132.5,303.5C 132.842,302.662 133.508,302.328 134.5,302.5 Z"/></g>
<g><path style="opacity:0.99" fill="#b8b8b8" d="M 134.5,302.5 C 134.833,302.5 135.167,302.5 135.5,302.5C 136.167,503.833 136.833,503.833 137.5,302.5C 138.167,302.5 138.833,302.5 139.5,302.5C 138.838,353.264 138.171,403.931 137.5,454.5C 136.833,454.5 136.167,454.5 135.5,454.5C 134.501,404.003 134.168,353.336 134.5,302.5 Z"/></g>
<g><path style="opacity:0.995" fill="#bdbdbd" d="M 135.5,302.5 C 136.167,302.5 136.833,302.5 137.5,302.5C 136.833,503.833 136.167,503.833 135.5,302.5 Z"/></g>
<g><path style="opacity:0.994" fill="#b1b1b1" d="M 139.5,302.5 C 140.167,302.5 140.5,302.833 140.5,303.5C 140.832,355.003 140.499,406.336 139.5,457.5C 138.833,456.5 138.167,455.5 137.5,454.5C 138.171,403.931 138.838,353.264 139.5,302.5 Z"/></g>
<g><path style="opacity:0.99" fill="#b0b0b0" d="M 371.5,302.5 C 372.162,353.264 372.829,403.931 373.5,454.5C 373.167,455.5 372.5,456.167 371.5,456.5C 370.95,406.125 370.616,355.125 370.5,303.5C 370.5,302.833 370.833,302.5 371.5,302.5 Z"/></g>
<g><path style="opacity:0.995" fill="#b8b8b8" d="M 371.5,302.5 C 372.167,302.5 372.833,302.5 373.5,302.5C 374.167,503.833 374.833,503.833 375.5,302.5C 375.833,302.5 376.167,302.5 376.5,302.5C 376.832,353.336 376.499,404.003 375.5,454.5C 374.833,454.5 374.167,454.5 373.5,454.5C 372.829,403.931 372.162,353.264 371.5,302.5 Z"/></g>
<g><path style="opacity:0.995" fill="#bdbdbd" d="M 373.5,302.5 C 374.167,302.5 374.833,302.5 375.5,302.5C 374.833,503.833 374.167,503.833 373.5,302.5 Z"/></g>
<g><path style="opacity:0.983" fill="#b2b2b2" d="M 376.5,302.5 C 377.492,302.328 378.158,302.662 378.5,303.5C 377.838,354.598 377.171,405.598 376.5,456.5C 376.167,455.833 375.833,455.167 375.5,454.5C 376.499,404.003 376.832,353.336 376.5,302.5 Z"/></g>
<g><path style="opacity:0.982" fill="#b2b2b2" d="M 473.5,302.5 C 473.168,353.336 473.501,404.003 474.5,454.5C 474.5,455.167 474.167,455.5 473.5,455.5C 472.829,404.931 472.162,354.264 471.5,303.5C 471.842,302.662 472.508,302.328 473.5,302.5 Z"/></g>
<g><path style="opacity:0.99" fill="#b8b8b8" d="M 473.5,302.5 C 473.833,302.5 474.167,302.5 474.5,302.5C 475.167,503.833 475.833,503.833 476.5,302.5C 477.167,302.5 477.833,302.5 478.5,302.5C 477.838,353.264 477.171,403.931 476.5,454.5C 475.833,454.5 475.167,454.5 474.5,454.5C 473.501,404.003 473.168,353.336 473.5,302.5 Z"/></g>
<g><path style="opacity:0.995" fill="#bdbdbd" d="M 474.5,302.5 C 475.167,302.5 475.833,302.5 476.5,302.5C 475.833,503.833 475.167,503.833 474.5,302.5 Z"/></g>
<g><path style="opacity:0.994" fill="#b1b1b1" d="M 478.5,302.5 C 479.167,302.5 479.5,302.833 479.5,303.5C 479.832,355.003 479.499,406.336 478.5,457.5C 477.833,456.5 477.167,455.5 476.5,454.5C 477.171,403.931 477.838,353.264 478.5,302.5 Z"/></g>
<g><path style="opacity:0.982" fill="#adadad" d="M 132.5,303.5 C 133.162,354.264 133.829,404.931 134.5,455.5C 133.89,456.391 133.557,457.391 133.5,458.5C 132.667,408.002 132.167,357.335 132,306.5C 131.617,305.944 131.117,305.611 130.5,305.5C 130.833,304.5 131.5,303.833 132.5,303.5 Z"/></g>
<g><path style="opacity:0.982" fill="#adadad" d="M 471.5,303.5 C 472.162,354.264 472.829,404.931 473.5,455.5C 472.89,456.391 472.557,457.391 472.5,458.5C 471.667,408.002 471.167,357.335 471,306.5C 470.617,305.944 470.117,305.611 469.5,305.5C 469.833,304.5 470.5,303.833 471.5,303.5 Z"/></g>
<g><path style="opacity:0.474" fill="#a7a7a7" d="M 31.5,303.5 C 31.6164,355.125 31.9498,406.125 32.5,456.5C 31.5877,460.571 31.5877,464.571 32.5,468.5C 32.9378,471.908 32.2712,475.241 30.5,478.5C 29.845,448.862 29.5117,419.196 29.5,389.5C 29.5002,360.492 30.1668,331.825 31.5,303.5 Z"/></g>
<g><path style="opacity:0.695" fill="#a6a6a6" d="M 41.5,305.5 C 41.6667,361.501 41.5,417.501 41,473.5C 40.8019,475.382 40.3019,477.048 39.5,478.5C 38.7929,475.214 38.4595,471.881 38.5,468.5C 39.7335,465.535 39.7335,462.535 38.5,459.5C 39.3328,409.002 39.8328,358.335 40,307.5C 40.2784,306.584 40.7784,305.918 41.5,305.5 Z"/></g>
<g><path style="opacity:0.588" fill="#a6a6a6" d="M 130.5,305.5 C 131.117,305.611 131.617,305.944 132,306.5C 132.167,357.335 132.667,408.002 133.5,458.5C 133.41,460.696 133.077,462.863 132.5,465C 132.862,466.434 133.528,467.601 134.5,468.5C 133.566,471.656 132.899,474.989 132.5,478.5C 131.698,477.048 131.198,475.382 131,473.5C 130.5,417.501 130.333,361.501 130.5,305.5 Z"/></g>
<g><path style="opacity:0.627" fill="#a7a7a7" d="M 140.5,303.5 C 141.833,331.825 142.5,360.492 142.5,389.5C 142.488,419.196 142.155,448.862 141.5,478.5C 140.833,475.167 140.167,471.833 139.5,468.5C 140.758,464.866 140.758,461.2 139.5,457.5C 140.499,406.336 140.832,355.003 140.5,303.5 Z"/></g>
<g><path style="opacity:0.474" fill="#a7a7a7" d="M 370.5,303.5 C 370.616,355.125 370.95,406.125 371.5,456.5C 370.588,460.571 370.588,464.571 371.5,468.5C 371.938,471.908 371.271,475.241 369.5,478.5C 368.845,448.862 368.512,419.196 368.5,389.5C 368.5,360.492 369.167,331.825 370.5,303.5 Z"/></g>
<g><path style="opacity:0.695" fill="#a6a6a6" d="M 380.5,305.5 C 380.667,361.501 380.5,417.501 380,473.5C 379.802,475.382 379.302,477.048 378.5,478.5C 377.793,475.214 377.46,471.881 377.5,468.5C 378.734,465.535 378.734,462.535 377.5,459.5C 378.333,409.002 378.833,358.335 379,307.5C 379.278,306.584 379.778,305.918 380.5,305.5 Z"/></g>
<g><path style="opacity:0.588" fill="#a6a6a6" d="M 469.5,305.5 C 470.117,305.611 470.617,305.944 471,306.5C 471.167,357.335 471.667,408.002 472.5,458.5C 472.41,460.696 472.077,462.863 471.5,465C 471.862,466.434 472.528,467.601 473.5,468.5C 472.566,471.656 471.899,474.989 471.5,478.5C 470.698,477.048 470.198,475.382 470,473.5C 469.5,417.501 469.333,361.501 469.5,305.5 Z"/></g>
<g><path style="opacity:0.627" fill="#a7a7a7" d="M 479.5,303.5 C 480.833,331.825 481.5,360.492 481.5,389.5C 481.488,419.196 481.155,448.862 480.5,478.5C 479.833,475.167 479.167,471.833 478.5,468.5C 479.758,464.866 479.758,461.2 478.5,457.5C 479.499,406.336 479.832,355.003 479.5,303.5 Z"/></g>
<g><path style="opacity:1" fill="#adadad" d="M 39.5,303.5 C 40.5,303.833 41.1667,304.5 41.5,305.5C 40.7784,305.918 40.2784,306.584 40,307.5C 39.8328,358.335 39.3328,409.002 38.5,459.5C 38.4431,458.391 38.1098,457.391 37.5,456.5C 38.171,405.598 38.8377,354.598 39.5,303.5 Z"/></g>
<g><path style="opacity:1" fill="#adadad" d="M 378.5,303.5 C 379.5,303.833 380.167,304.5 380.5,305.5C 379.778,305.918 379.278,306.584 379,307.5C 378.833,358.335 378.333,409.002 377.5,459.5C 377.443,458.391 377.11,457.391 376.5,456.5C 377.171,405.598 377.838,354.598 378.5,303.5 Z"/></g>
<g><path style="opacity:1" fill="#909090" d="M 253.5,406.5 C 254.5,406.5 255.5,406.5 256.5,406.5C 257.167,407.833 258.167,408.833 259.5,409.5C 261.601,412.127 262.934,415.127 263.5,418.5C 264.899,424.242 265.899,430.076 266.5,436C 266.16,438.511 265.16,440.678 263.5,442.5C 262.167,442.833 260.833,443.167 259.5,443.5C 258.5,443.5 257.5,443.5 256.5,443.5C 255.833,443.5 255.167,443.5 254.5,443.5C 253.5,443.5 252.5,443.5 251.5,443.5C 250.167,443.167 248.833,442.833 247.5,442.5C 245.874,439.754 245.207,436.754 245.5,433.5C 245.604,426.991 246.604,420.658 248.5,414.5C 250.008,412.819 251.008,410.819 251.5,408.5C 252.5,408.167 253.167,407.5 253.5,406.5 Z"/></g>
<g><path style="opacity:1" fill="#8f8f8f" d="M 222.5,411.5 C 223.5,412.833 224.5,414.167 225.5,415.5C 227.171,419.149 228.504,422.816 229.5,426.5C 229.852,431.593 229.852,436.593 229.5,441.5C 228.29,441.932 227.29,442.599 226.5,443.5C 222.5,443.5 218.5,443.5 214.5,443.5C 213.71,442.599 212.71,441.932 211.5,441.5C 211.179,440.183 210.846,438.849 210.5,437.5C 211.635,432.221 212.302,426.888 212.5,421.5C 213.458,419.698 214.125,417.698 214.5,415.5C 215.488,414.205 216.488,412.872 217.5,411.5C 219.167,410.167 220.833,410.167 222.5,411.5 Z"/></g>
<g><path style="opacity:1" fill="#8f8f8f" d="M 292.5,411.5 C 293.5,412.833 294.5,414.167 295.5,415.5C 297.171,419.149 298.504,422.816 299.5,426.5C 299.852,431.593 299.852,436.593 299.5,441.5C 298.29,441.932 297.29,442.599 296.5,443.5C 292.5,443.5 288.5,443.5 284.5,443.5C 283.71,442.599 282.71,441.932 281.5,441.5C 281.179,440.183 280.846,438.849 280.5,437.5C 281.635,432.221 282.302,426.888 282.5,421.5C 283.458,419.698 284.125,417.698 284.5,415.5C 285.488,414.205 286.488,412.872 287.5,411.5C 289.167,410.167 290.833,410.167 292.5,411.5 Z"/></g>
<g><path style="opacity:1" fill="#8f8f8f" d="M 191.5,413.5 C 191.5,414.167 191.833,414.5 192.5,414.5C 193.864,416.191 195.197,417.858 196.5,419.5C 197.92,422.261 198.587,425.261 198.5,428.5C 202.376,440.789 198.042,445.622 185.5,443C 183.643,441.818 182.643,440.151 182.5,438C 183.772,432.203 184.772,426.369 185.5,420.5C 185.5,419.833 185.5,419.167 185.5,418.5C 186.488,417.205 187.488,415.872 188.5,414.5C 189.391,413.89 190.391,413.557 191.5,413.5 Z"/></g>
<g><path style="opacity:1" fill="#8f8f8f" d="M 321.5,413.5 C 321.5,414.167 321.833,414.5 322.5,414.5C 323.864,416.191 325.197,417.858 326.5,419.5C 327.92,422.261 328.587,425.261 328.5,428.5C 332.376,440.789 328.042,445.622 315.5,443C 313.643,441.818 312.643,440.151 312.5,438C 313.772,432.203 314.772,426.369 315.5,420.5C 315.5,419.833 315.5,419.167 315.5,418.5C 316.488,417.205 317.488,415.872 318.5,414.5C 319.391,413.89 320.391,413.557 321.5,413.5 Z"/></g>
<g><path style="opacity:1" fill="#909090" d="M 164.5,420.5 C 165.791,420.263 166.791,420.596 167.5,421.5C 168.5,422.833 169.5,424.167 170.5,425.5C 171.75,428.006 172.416,430.673 172.5,433.5C 172.507,436.038 172.841,438.538 173.5,441C 173.443,443.209 172.443,444.709 170.5,445.5C 167.5,445.5 164.5,445.5 161.5,445.5C 160.315,444.143 159.315,442.643 158.5,441C 159.348,438.23 159.681,435.397 159.5,432.5C 159.56,429.659 160.226,426.993 161.5,424.5C 162.5,423.167 163.5,421.833 164.5,420.5 Z"/></g>
<g><path style="opacity:1" fill="#909090" d="M 344.5,420.5 C 345.791,420.263 346.791,420.596 347.5,421.5C 348.5,422.833 349.5,424.167 350.5,425.5C 351.75,428.006 352.416,430.673 352.5,433.5C 352.507,436.038 352.841,438.538 353.5,441C 353.443,443.209 352.443,444.709 350.5,445.5C 347.5,445.5 344.5,445.5 341.5,445.5C 340.315,444.143 339.315,442.643 338.5,441C 339.348,438.23 339.681,435.397 339.5,432.5C 339.56,429.659 340.226,426.993 341.5,424.5C 342.5,423.167 343.5,421.833 344.5,420.5 Z"/></g>
<g><path style="opacity:1" fill="#7b7b7b" d="M 247.5,435.5 C 252.5,435.5 257.5,435.5 262.5,435.5C 262.5,436.5 262.5,437.5 262.5,438.5C 257.5,438.5 252.5,438.5 247.5,438.5C 247.5,437.5 247.5,436.5 247.5,435.5 Z"/></g>
<g><path style="opacity:1" fill="#7a7a7a" d="M 184.5,437.5 C 188.555,437.176 192.555,437.509 196.5,438.5C 194.5,438.833 192.5,439.167 190.5,439.5C 188.048,439.461 186.048,438.794 184.5,437.5 Z"/></g>
<g><path style="opacity:1" fill="#7e7e7e" d="M 213.5,436.5 C 218.167,436.5 222.833,436.5 227.5,436.5C 227.5,437.5 227.5,438.5 227.5,439.5C 222.833,439.5 218.167,439.5 213.5,439.5C 213.5,438.5 213.5,437.5 213.5,436.5 Z"/></g>
<g><path style="opacity:1" fill="#7e7e7e" d="M 283.5,436.5 C 288.167,436.5 292.833,436.5 297.5,436.5C 297.5,437.5 297.5,438.5 297.5,439.5C 292.833,439.5 288.167,439.5 283.5,439.5C 283.5,438.5 283.5,437.5 283.5,436.5 Z"/></g>
<g><path style="opacity:1" fill="#7a7a7a" d="M 314.5,437.5 C 318.555,437.176 322.555,437.509 326.5,438.5C 324.5,438.833 322.5,439.167 320.5,439.5C 318.048,439.461 316.048,438.794 314.5,437.5 Z"/></g>
<g><path style="opacity:1" fill="#7e7e7e" d="M 160.5,440.5 C 163.898,440.18 167.232,440.513 170.5,441.5C 168.833,441.833 167.167,442.167 165.5,442.5C 163.36,442.444 161.694,441.777 160.5,440.5 Z"/></g>
<g><path style="opacity:0.767" fill="#ababab" d="M 211.5,441.5 C 212.71,441.932 213.71,442.599 214.5,443.5C 212.847,450.946 211.847,458.612 211.5,466.5C 209.882,461.744 208.882,456.744 208.5,451.5C 209.323,448.023 209.823,444.356 210,440.5C 210.383,441.056 210.883,441.389 211.5,441.5 Z"/></g>
<g><path style="opacity:0.692" fill="#ababab" d="M 233.5,449.5 C 233.412,455.638 232.079,461.304 229.5,466.5C 229.153,458.612 228.153,450.946 226.5,443.5C 227.29,442.599 228.29,441.932 229.5,441.5C 230.117,441.389 230.617,441.056 231,440.5C 230.93,443.992 231.763,446.992 233.5,449.5 Z"/></g>
<g><path style="opacity:0.767" fill="#ababab" d="M 281.5,441.5 C 282.71,441.932 283.71,442.599 284.5,443.5C 282.847,450.946 281.847,458.612 281.5,466.5C 279.882,461.744 278.882,456.744 278.5,451.5C 279.323,448.023 279.823,444.356 280,440.5C 280.383,441.056 280.883,441.389 281.5,441.5 Z"/></g>
<g><path style="opacity:0.692" fill="#ababab" d="M 303.5,449.5 C 303.412,455.638 302.079,461.304 299.5,466.5C 299.153,458.612 298.153,450.946 296.5,443.5C 297.29,442.599 298.29,441.932 299.5,441.5C 300.117,441.389 300.617,441.056 301,440.5C 300.93,443.992 301.763,446.992 303.5,449.5 Z"/></g>
<g><path style="opacity:1" fill="#7e7e7e" d="M 340.5,440.5 C 343.898,440.18 347.232,440.513 350.5,441.5C 348.833,441.833 347.167,442.167 345.5,442.5C 343.36,442.444 341.694,441.777 340.5,440.5 Z"/></g>
<g><path style="opacity:0.915" fill="#b2b2b2" d="M 247.5,442.5 C 248.833,442.833 250.167,443.167 251.5,443.5C 250.833,457.5 250.167,471.5 249.5,485.5C 247.754,479.75 246.754,473.75 246.5,467.5C 247.319,459.767 247.652,451.434 247.5,442.5 Z"/></g>
<g><path style="opacity:0.954" fill="#b2b2b2" d="M 263.5,442.5 C 264.493,450.65 264.826,458.983 264.5,467.5C 264.236,474.078 263.236,480.411 261.5,486.5C 261.318,472.518 260.652,458.185 259.5,443.5C 260.833,443.167 262.167,442.833 263.5,442.5 Z"/></g>
<g><path style="opacity:0.837" fill="#b1b1b1" d="M 214.5,443.5 C 218.5,443.5 222.5,443.5 226.5,443.5C 228.153,450.946 229.153,458.612 229.5,466.5C 229.236,472.422 228.236,478.089 226.5,483.5C 225.52,470.579 225.186,457.579 225.5,444.5C 224.5,444.5 223.5,444.5 222.5,444.5C 221.167,444.5 219.833,444.5 218.5,444.5C 217.5,444.5 216.5,444.5 215.5,444.5C 215.813,457.246 215.48,469.913 214.5,482.5C 212.754,477.428 211.754,472.095 211.5,466.5C 211.847,458.612 212.847,450.946 214.5,443.5 Z"/></g>
<g><path style="opacity:0.948" fill="#b8b8b8" d="M 251.5,443.5 C 252.5,443.5 253.5,443.5 254.5,443.5C 253.515,460.756 253.181,478.09 253.5,495.5C 252.504,495.586 251.671,495.252 251,494.5C 250.047,491.568 249.547,488.568 249.5,485.5C 250.167,471.5 250.833,457.5 251.5,443.5 Z"/></g>
<g><path style="opacity:0.999" fill="#bdbdbd" d="M 254.5,443.5 C 255.167,443.5 255.833,443.5 256.5,443.5C 257.575,444.713 258.241,446.213 258.5,448C 257.868,463.632 257.868,479.465 258.5,495.5C 256.833,495.5 255.167,495.5 253.5,495.5C 253.181,478.09 253.515,460.756 254.5,443.5 Z"/></g>
<g><path style="opacity:0.96" fill="#b8b8b8" d="M 256.5,443.5 C 257.5,443.5 258.5,443.5 259.5,443.5C 260.652,458.185 261.318,472.518 261.5,486.5C 262.075,490.155 261.075,493.155 258.5,495.5C 257.868,479.465 257.868,463.632 258.5,448C 258.241,446.213 257.575,444.713 256.5,443.5 Z"/></g>
<g><path style="opacity:0.837" fill="#b1b1b1" d="M 284.5,443.5 C 288.5,443.5 292.5,443.5 296.5,443.5C 298.153,450.946 299.153,458.612 299.5,466.5C 299.236,472.422 298.236,478.089 296.5,483.5C 295.52,470.579 295.186,457.579 295.5,444.5C 294.5,444.5 293.5,444.5 292.5,444.5C 291.167,444.5 289.833,444.5 288.5,444.5C 287.5,444.5 286.5,444.5 285.5,444.5C 285.813,457.246 285.48,469.913 284.5,482.5C 282.754,477.428 281.754,472.095 281.5,466.5C 281.847,458.612 282.847,450.946 284.5,443.5 Z"/></g>
<g><path style="opacity:0.779" fill="#b2b2b2" d="M 186.5,444.5 C 186.811,455.914 186.477,467.248 185.5,478.5C 183.754,474.111 182.754,469.444 182.5,464.5C 183.377,460.678 184.044,456.678 184.5,452.5C 182.876,449.125 183.543,446.458 186.5,444.5 Z"/></g>
<g><path style="opacity:0.999" fill="#bbbbbb" d="M 186.5,444.5 C 188.833,444.5 191.167,444.5 193.5,444.5C 193.5,458.5 193.5,472.5 193.5,486.5C 191.167,486.5 188.833,486.5 186.5,486.5C 185.908,483.873 185.575,481.206 185.5,478.5C 186.477,467.248 186.811,455.914 186.5,444.5 Z"/></g>
<g><path style="opacity:0.902" fill="#b5b5b5" d="M 199.5,464.5 C 198.767,471.565 197.6,478.565 196,485.5C 195.329,486.252 194.496,486.586 193.5,486.5C 193.5,472.5 193.5,458.5 193.5,444.5C 195.144,444.714 196.644,444.38 198,443.5C 198.171,450.679 198.671,457.679 199.5,464.5 Z"/></g>
<g><path style="opacity:0.917" fill="#b8b8b8" d="M 218.5,444.5 C 218.5,460.167 218.5,475.833 218.5,491.5C 217.5,491.5 216.5,491.5 215.5,491.5C 215.037,488.518 214.704,485.518 214.5,482.5C 215.48,469.913 215.813,457.246 215.5,444.5C 216.5,444.5 217.5,444.5 218.5,444.5 Z"/></g>
<g><path style="opacity:0.999" fill="#bdbdbd" d="M 218.5,444.5 C 219.833,444.5 221.167,444.5 222.5,444.5C 222.694,460.347 223.028,476.014 223.5,491.5C 221.833,491.5 220.167,491.5 218.5,491.5C 218.5,475.833 218.5,460.167 218.5,444.5 Z"/></g>
<g><path style="opacity:0.933" fill="#b8b8b8" d="M 222.5,444.5 C 223.5,444.5 224.5,444.5 225.5,444.5C 225.186,457.579 225.52,470.579 226.5,483.5C 226.662,485.527 226.495,487.527 226,489.5C 225.583,490.756 224.75,491.423 223.5,491.5C 223.028,476.014 222.694,460.347 222.5,444.5 Z"/></g>
<g><path style="opacity:0.917" fill="#b8b8b8" d="M 288.5,444.5 C 288.5,460.167 288.5,475.833 288.5,491.5C 287.5,491.5 286.5,491.5 285.5,491.5C 285.037,488.518 284.704,485.518 284.5,482.5C 285.48,469.913 285.813,457.246 285.5,444.5C 286.5,444.5 287.5,444.5 288.5,444.5 Z"/></g>
<g><path style="opacity:0.999" fill="#bdbdbd" d="M 288.5,444.5 C 289.833,444.5 291.167,444.5 292.5,444.5C 292.694,460.347 293.028,476.014 293.5,491.5C 291.833,491.5 290.167,491.5 288.5,491.5C 288.5,475.833 288.5,460.167 288.5,444.5 Z"/></g>
<g><path style="opacity:0.933" fill="#b8b8b8" d="M 292.5,444.5 C 293.5,444.5 294.5,444.5 295.5,444.5C 295.186,457.579 295.52,470.579 296.5,483.5C 296.662,485.527 296.495,487.527 296,489.5C 295.583,490.756 294.75,491.423 293.5,491.5C 293.028,476.014 292.694,460.347 292.5,444.5 Z"/></g>
<g><path style="opacity:0.779" fill="#b2b2b2" d="M 316.5,444.5 C 316.811,455.914 316.477,467.248 315.5,478.5C 313.754,474.111 312.754,469.444 312.5,464.5C 313.377,460.678 314.044,456.678 314.5,452.5C 312.876,449.125 313.543,446.458 316.5,444.5 Z"/></g>
<g><path style="opacity:0.999" fill="#bbbbbb" d="M 316.5,444.5 C 318.833,444.5 321.167,444.5 323.5,444.5C 323.5,458.5 323.5,472.5 323.5,486.5C 321.167,486.5 318.833,486.5 316.5,486.5C 315.908,483.873 315.575,481.206 315.5,478.5C 316.477,467.248 316.811,455.914 316.5,444.5 Z"/></g>
<g><path style="opacity:0.902" fill="#b5b5b5" d="M 329.5,464.5 C 328.767,471.565 327.6,478.565 326,485.5C 325.329,486.252 324.496,486.586 323.5,486.5C 323.5,472.5 323.5,458.5 323.5,444.5C 325.144,444.714 326.644,444.38 328,443.5C 328.171,450.679 328.671,457.679 329.5,464.5 Z"/></g>
<g><path style="opacity:0.823" fill="#b1b1b1" d="M 161.5,445.5 C 164.5,445.5 167.5,445.5 170.5,445.5C 172.147,451.265 173.147,457.265 173.5,463.5C 172.962,467.524 172.295,471.524 171.5,475.5C 170.883,475.389 170.383,475.056 170,474.5C 169.5,465.173 169.334,455.839 169.5,446.5C 167.167,446.5 164.833,446.5 162.5,446.5C 162.666,455.506 162.5,464.506 162,473.5C 161.722,474.416 161.222,475.082 160.5,475.5C 159.833,471.5 159.167,467.5 158.5,463.5C 160.097,458.511 160.431,453.345 159.5,448C 159.684,446.624 160.351,445.791 161.5,445.5 Z"/></g>
<g><path style="opacity:0.823" fill="#b1b1b1" d="M 341.5,445.5 C 344.5,445.5 347.5,445.5 350.5,445.5C 352.147,451.265 353.147,457.265 353.5,463.5C 352.962,467.524 352.295,471.524 351.5,475.5C 350.883,475.389 350.383,475.056 350,474.5C 349.5,465.173 349.334,455.839 349.5,446.5C 347.167,446.5 344.833,446.5 342.5,446.5C 342.666,455.506 342.5,464.506 342,473.5C 341.722,474.416 341.222,475.082 340.5,475.5C 339.833,471.5 339.167,467.5 338.5,463.5C 340.097,458.511 340.431,453.345 339.5,448C 339.684,446.624 340.351,445.791 341.5,445.5 Z"/></g>
<g><path style="opacity:0.999" fill="#bbbbbb" d="M 171.5,475.5 C 171.643,477.262 171.309,478.929 170.5,480.5C 167.572,481.484 164.572,481.817 161.5,481.5C 161.167,479.5 160.833,477.5 160.5,475.5C 161.222,475.082 161.722,474.416 162,473.5C 162.5,464.506 162.666,455.506 162.5,446.5C 164.833,446.5 167.167,446.5 169.5,446.5C 169.334,455.839 169.5,465.173 170,474.5C 170.383,475.056 170.883,475.389 171.5,475.5 Z"/></g>
<g><path style="opacity:0.999" fill="#bbbbbb" d="M 351.5,475.5 C 351.643,477.262 351.309,478.929 350.5,480.5C 347.572,481.484 344.572,481.817 341.5,481.5C 341.167,479.5 340.833,477.5 340.5,475.5C 341.222,475.082 341.722,474.416 342,473.5C 342.5,464.506 342.666,455.506 342.5,446.5C 344.833,446.5 347.167,446.5 349.5,446.5C 349.334,455.839 349.5,465.173 350,474.5C 350.383,475.056 350.883,475.389 351.5,475.5 Z"/></g>
<g><path style="opacity:1" fill="#909090" d="M 84.5,446.5 C 85.1667,446.5 85.8333,446.5 86.5,446.5C 86.5,447.167 86.8333,447.5 87.5,447.5C 88.1667,448.833 88.8333,450.167 89.5,451.5C 90.5456,454.728 91.2122,458.061 91.5,461.5C 91.634,463.292 91.3007,464.958 90.5,466.5C 89.609,467.11 88.609,467.443 87.5,467.5C 86.5,467.5 85.5,467.5 84.5,467.5C 83.8333,467.5 83.1667,467.5 82.5,467.5C 79.169,464.81 78.5023,461.476 80.5,457.5C 80.5597,454.659 81.2264,451.993 82.5,449.5C 82.8333,448.833 83.1667,448.167 83.5,447.5C 84.1667,447.5 84.5,447.167 84.5,446.5 Z"/></g>
<g><path style="opacity:1" fill="#909090" d="M 423.5,446.5 C 424.167,446.5 424.833,446.5 425.5,446.5C 425.5,447.167 425.833,447.5 426.5,447.5C 427.167,448.833 427.833,450.167 428.5,451.5C 429.546,454.728 430.212,458.061 430.5,461.5C 430.634,463.292 430.301,464.958 429.5,466.5C 428.609,467.11 427.609,467.443 426.5,467.5C 425.5,467.5 424.5,467.5 423.5,467.5C 422.833,467.5 422.167,467.5 421.5,467.5C 418.169,464.81 417.502,461.476 419.5,457.5C 419.56,454.659 420.226,451.993 421.5,449.5C 421.833,448.833 422.167,448.167 422.5,447.5C 423.167,447.5 423.5,447.167 423.5,446.5 Z"/></g>
<g><path style="opacity:1" fill="#909090" d="M 66.5,448.5 C 66.5,449.167 66.8333,449.5 67.5,449.5C 67.8333,450.5 68.5,451.167 69.5,451.5C 70.4222,455.112 71.0889,458.779 71.5,462.5C 71.7373,463.791 71.404,464.791 70.5,465.5C 69.4855,464.235 67.9855,463.569 66,463.5C 64.0145,463.569 62.5145,464.235 61.5,465.5C 60.8968,463.374 60.8968,461.041 61.5,458.5C 61.6741,456.139 62.0074,453.806 62.5,451.5C 63.3382,451.158 63.6716,450.492 63.5,449.5C 64.391,448.89 65.391,448.557 66.5,448.5 Z"/></g>
<g><path style="opacity:1" fill="#909090" d="M 107.5,449.5 C 108.11,450.391 108.443,451.391 108.5,452.5C 109.167,454.5 109.833,456.5 110.5,458.5C 110.909,461.855 110.242,464.855 108.5,467.5C 106.5,467.5 104.5,467.5 102.5,467.5C 101.833,466.833 101.167,466.167 100.5,465.5C 99.8968,463.374 99.8968,461.041 100.5,458.5C 100.584,455.673 101.25,453.006 102.5,450.5C 103.167,450.5 103.5,450.167 103.5,449.5C 104.833,448.167 106.167,448.167 107.5,449.5 Z"/></g>
<g><path style="opacity:1" fill="#909090" d="M 405.5,448.5 C 405.5,449.167 405.833,449.5 406.5,449.5C 406.833,450.5 407.5,451.167 408.5,451.5C 409.422,455.112 410.089,458.779 410.5,462.5C 410.737,463.791 410.404,464.791 409.5,465.5C 408.486,464.235 406.986,463.569 405,463.5C 403.014,463.569 401.514,464.235 400.5,465.5C 399.897,463.374 399.897,461.041 400.5,458.5C 400.674,456.139 401.007,453.806 401.5,451.5C 402.338,451.158 402.672,450.492 402.5,449.5C 403.391,448.89 404.391,448.557 405.5,448.5 Z"/></g>
<g><path style="opacity:1" fill="#909090" d="M 446.5,449.5 C 447.11,450.391 447.443,451.391 447.5,452.5C 448.167,454.5 448.833,456.5 449.5,458.5C 449.909,461.855 449.242,464.855 447.5,467.5C 445.5,467.5 443.5,467.5 441.5,467.5C 440.833,466.833 440.167,466.167 439.5,465.5C 438.897,463.374 438.897,461.041 439.5,458.5C 439.584,455.673 440.25,453.006 441.5,450.5C 442.167,450.5 442.5,450.167 442.5,449.5C 443.833,448.167 445.167,448.167 446.5,449.5 Z"/></g>
<g><path style="opacity:1" fill="#909090" d="M 48.5,450.5 C 48.8333,450.5 49.1667,450.5 49.5,450.5C 49.8333,450.5 50.1667,450.5 50.5,450.5C 51.1667,451.5 51.8333,452.5 52.5,453.5C 52.8333,454.833 53.1667,456.167 53.5,457.5C 53.2924,459.92 53.6258,462.253 54.5,464.5C 53.8075,465.518 53.1408,466.518 52.5,467.5C 50.5,467.5 48.5,467.5 46.5,467.5C 44.2089,464.111 43.8756,460.444 45.5,456.5C 45.8333,455.167 46.1667,453.833 46.5,452.5C 47.5,452.167 48.1667,451.5 48.5,450.5 Z"/></g>
<g><path style="opacity:1" fill="#909090" d="M 121.5,450.5 C 121.833,450.5 122.167,450.5 122.5,450.5C 122.833,450.5 123.167,450.5 123.5,450.5C 124.167,451.5 124.833,452.5 125.5,453.5C 126.038,455.117 126.371,456.784 126.5,458.5C 128.015,461.737 127.681,464.737 125.5,467.5C 123.5,467.5 121.5,467.5 119.5,467.5C 117.319,464.737 116.985,461.737 118.5,458.5C 118.517,456.435 118.85,454.435 119.5,452.5C 120.5,452.167 121.167,451.5 121.5,450.5 Z"/></g>
<g><path style="opacity:1" fill="#909090" d="M 387.5,450.5 C 387.833,450.5 388.167,450.5 388.5,450.5C 388.833,450.5 389.167,450.5 389.5,450.5C 390.167,451.5 390.833,452.5 391.5,453.5C 391.833,454.833 392.167,456.167 392.5,457.5C 392.292,459.92 392.626,462.253 393.5,464.5C 392.807,465.518 392.141,466.518 391.5,467.5C 389.5,467.5 387.5,467.5 385.5,467.5C 383.209,464.111 382.876,460.444 384.5,456.5C 384.833,455.167 385.167,453.833 385.5,452.5C 386.5,452.167 387.167,451.5 387.5,450.5 Z"/></g>
<g><path style="opacity:1" fill="#909090" d="M 460.5,450.5 C 460.833,450.5 461.167,450.5 461.5,450.5C 461.833,450.5 462.167,450.5 462.5,450.5C 463.167,451.5 463.833,452.5 464.5,453.5C 465.038,455.117 465.371,456.784 465.5,458.5C 467.015,461.737 466.681,464.737 464.5,467.5C 462.5,467.5 460.5,467.5 458.5,467.5C 456.319,464.737 455.985,461.737 457.5,458.5C 457.517,456.435 457.85,454.435 458.5,452.5C 459.5,452.167 460.167,451.5 460.5,450.5 Z"/></g>
<g><path style="opacity:1" fill="#8f8f8f" d="M 34.5,454.5 C 35.1667,454.5 35.8333,454.5 36.5,454.5C 36.8333,455.167 37.1667,455.833 37.5,456.5C 38.1098,457.391 38.4431,458.391 38.5,459.5C 39.7335,462.535 39.7335,465.535 38.5,468.5C 36.5,468.5 34.5,468.5 32.5,468.5C 31.5877,464.571 31.5877,460.571 32.5,456.5C 33.5,456.167 34.1667,455.5 34.5,454.5 Z"/></g>
<g><path style="opacity:1" fill="#8f8f8f" d="M 135.5,454.5 C 136.167,454.5 136.833,454.5 137.5,454.5C 138.167,455.5 138.833,456.5 139.5,457.5C 140.758,461.2 140.758,464.866 139.5,468.5C 138.833,468.5 138.167,468.5 137.5,468.5C 136.5,468.5 135.5,468.5 134.5,468.5C 133.528,467.601 132.862,466.434 132.5,465C 133.077,462.863 133.41,460.696 133.5,458.5C 133.557,457.391 133.89,456.391 134.5,455.5C 135.167,455.5 135.5,455.167 135.5,454.5 Z"/></g>
<g><path style="opacity:1" fill="#8f8f8f" d="M 373.5,454.5 C 374.167,454.5 374.833,454.5 375.5,454.5C 375.833,455.167 376.167,455.833 376.5,456.5C 377.11,457.391 377.443,458.391 377.5,459.5C 378.734,462.535 378.734,465.535 377.5,468.5C 375.5,468.5 373.5,468.5 371.5,468.5C 370.588,464.571 370.588,460.571 371.5,456.5C 372.5,456.167 373.167,455.5 373.5,454.5 Z"/></g>
<g><path style="opacity:1" fill="#8f8f8f" d="M 474.5,454.5 C 475.167,454.5 475.833,454.5 476.5,454.5C 477.167,455.5 477.833,456.5 478.5,457.5C 479.758,461.2 479.758,464.866 478.5,468.5C 477.833,468.5 477.167,468.5 476.5,468.5C 475.5,468.5 474.5,468.5 473.5,468.5C 472.528,467.601 471.862,466.434 471.5,465C 472.077,462.863 472.41,460.696 472.5,458.5C 472.557,457.391 472.89,456.391 473.5,455.5C 474.167,455.5 474.5,455.167 474.5,454.5 Z"/></g>
<g><path style="opacity:1" fill="#7e7e7e" d="M 81.5,462.5 C 84.2469,462.187 86.9135,462.52 89.5,463.5C 88.1667,463.833 86.8333,464.167 85.5,464.5C 83.6672,464.415 82.3339,463.748 81.5,462.5 Z"/></g>
<g><path style="opacity:1" fill="#7e7e7e" d="M 420.5,462.5 C 423.247,462.187 425.914,462.52 428.5,463.5C 427.167,463.833 425.833,464.167 424.5,464.5C 422.667,464.415 421.334,463.748 420.5,462.5 Z"/></g>
<g><path style="opacity:1" fill="#838383" d="M 70.5,465.5 C 67.5,465.5 64.5,465.5 61.5,465.5C 62.5145,464.235 64.0145,463.569 66,463.5C 67.9855,463.569 69.4855,464.235 70.5,465.5 Z"/></g>
<g><path style="opacity:1" fill="#838383" d="M 100.5,465.5 C 101.514,464.235 103.014,463.569 105,463.5C 106.5,463.833 108,464.167 109.5,464.5C 106.572,465.484 103.572,465.817 100.5,465.5 Z"/></g>
<g><path style="opacity:1" fill="#838383" d="M 409.5,465.5 C 406.5,465.5 403.5,465.5 400.5,465.5C 401.514,464.235 403.014,463.569 405,463.5C 406.986,463.569 408.486,464.235 409.5,465.5 Z"/></g>
<g><path style="opacity:1" fill="#838383" d="M 439.5,465.5 C 440.514,464.235 442.014,463.569 444,463.5C 445.5,463.833 447,464.167 448.5,464.5C 445.572,465.484 442.572,465.817 439.5,465.5 Z"/></g>
<g><path style="opacity:1" fill="#909090" d="M 61.5,465.5 C 64.5,465.5 67.5,465.5 70.5,465.5C 70.1667,466.167 69.8333,466.833 69.5,467.5C 69.1667,467.5 68.8333,467.5 68.5,467.5C 67.1667,467.5 65.8333,467.5 64.5,467.5C 63.8333,467.5 63.1667,467.5 62.5,467.5C 62.1667,466.833 61.8333,466.167 61.5,465.5 Z"/></g>
<g><path style="opacity:1" fill="#909090" d="M 400.5,465.5 C 403.5,465.5 406.5,465.5 409.5,465.5C 409.167,466.167 408.833,466.833 408.5,467.5C 408.167,467.5 407.833,467.5 407.5,467.5C 406.167,467.5 404.833,467.5 403.5,467.5C 402.833,467.5 402.167,467.5 401.5,467.5C 401.167,466.833 400.833,466.167 400.5,465.5 Z"/></g>
<g><path style="opacity:0.881" fill="#b7b7b7" d="M 46.5,467.5 C 48.5,467.5 50.5,467.5 52.5,467.5C 53.1667,471.5 53.8333,475.5 54.5,479.5C 53.7048,483.476 53.0381,487.476 52.5,491.5C 50.5,491.5 48.5,491.5 46.5,491.5C 45.6245,487.538 44.9578,483.538 44.5,479.5C 45.1086,475.395 45.7752,471.395 46.5,467.5 Z"/></g>
<g><path style="opacity:0.804" fill="#b2b2b2" d="M 62.5,467.5 C 63.1667,467.5 63.8333,467.5 64.5,467.5C 63.8333,474.833 63.1667,482.167 62.5,489.5C 61.525,486.689 60.8583,483.689 60.5,480.5C 61.1667,476.167 61.8333,471.833 62.5,467.5 Z"/></g>
<g><path style="opacity:0.997" fill="#bbbbbb" d="M 64.5,467.5 C 65.8333,467.5 67.1667,467.5 68.5,467.5C 68.175,475.019 68.5084,482.352 69.5,489.5C 69.5,491.167 69.5,492.833 69.5,494.5C 67.4727,494.662 65.4727,494.495 63.5,494C 62.6198,492.644 62.2865,491.144 62.5,489.5C 63.1667,482.167 63.8333,474.833 64.5,467.5 Z"/></g>
<g><path style="opacity:0.849" fill="#b2b2b2" d="M 68.5,467.5 C 68.8333,467.5 69.1667,467.5 69.5,467.5C 70.1667,471.833 70.8333,476.167 71.5,480.5C 71.1417,483.689 70.475,486.689 69.5,489.5C 68.5084,482.352 68.175,475.019 68.5,467.5 Z"/></g>
<g><path style="opacity:0.93" fill="#b5b5b5" d="M 82.5,467.5 C 83.1667,467.5 83.8333,467.5 84.5,467.5C 84.5,477.167 84.5,486.833 84.5,496.5C 81.8103,492.091 80.477,487.091 80.5,481.5C 79.8969,476.381 80.5636,471.715 82.5,467.5 Z"/></g>
<g><path style="opacity:0.999" fill="#bdbdbd" d="M 84.5,467.5 C 85.5,467.5 86.5,467.5 87.5,467.5C 87.5,477.167 87.5,486.833 87.5,496.5C 86.5,496.5 85.5,496.5 84.5,496.5C 84.5,486.833 84.5,477.167 84.5,467.5 Z"/></g>
<g><path style="opacity:0.887" fill="#b5b5b5" d="M 90.5,466.5 C 90.1795,471.695 90.5128,476.695 91.5,481.5C 90.3522,486.095 89.5189,490.762 89,495.5C 88.6174,496.056 88.1174,496.389 87.5,496.5C 87.5,486.833 87.5,477.167 87.5,467.5C 88.609,467.443 89.609,467.11 90.5,466.5 Z"/></g>
<g><path style="opacity:0.891" fill="#b5b5b5" d="M 102.5,467.5 C 104.5,467.5 106.5,467.5 108.5,467.5C 110.43,471.373 111.097,475.706 110.5,480.5C 110.423,484.877 109.923,489.21 109,493.5C 108.617,494.056 108.117,494.389 107.5,494.5C 105.846,459.979 104.846,459.979 104.5,494.5C 103.25,494.423 102.417,493.756 102,492.5C 101.172,488.534 100.672,484.534 100.5,480.5C 101.819,477.508 101.819,474.508 100.5,471.5C 100.585,469.667 101.252,468.334 102.5,467.5 Z"/></g>
<g><path style="opacity:0.918" fill="#b5b5b5" d="M 119.5,467.5 C 121.5,467.5 123.5,467.5 125.5,467.5C 126.225,471.395 126.891,475.395 127.5,479.5C 127.506,484.151 126.173,488.151 123.5,491.5C 123.5,483.833 123.5,476.167 123.5,468.5C 122.5,468.5 121.5,468.5 120.5,468.5C 120.705,474.878 120.372,481.211 119.5,487.5C 118.469,485.039 117.802,482.373 117.5,479.5C 118.167,475.5 118.833,471.5 119.5,467.5 Z"/></g>
<g><path style="opacity:0.881" fill="#b7b7b7" d="M 385.5,467.5 C 387.5,467.5 389.5,467.5 391.5,467.5C 392.167,471.5 392.833,475.5 393.5,479.5C 392.705,483.476 392.038,487.476 391.5,491.5C 389.5,491.5 387.5,491.5 385.5,491.5C 384.624,487.538 383.958,483.538 383.5,479.5C 384.109,475.395 384.775,471.395 385.5,467.5 Z"/></g>
<g><path style="opacity:0.804" fill="#b2b2b2" d="M 401.5,467.5 C 402.167,467.5 402.833,467.5 403.5,467.5C 402.833,474.833 402.167,482.167 401.5,489.5C 400.525,486.689 399.858,483.689 399.5,480.5C 400.167,476.167 400.833,471.833 401.5,467.5 Z"/></g>
<g><path style="opacity:0.997" fill="#bbbbbb" d="M 403.5,467.5 C 404.833,467.5 406.167,467.5 407.5,467.5C 407.175,475.019 407.508,482.352 408.5,489.5C 408.5,491.167 408.5,492.833 408.5,494.5C 406.473,494.662 404.473,494.495 402.5,494C 401.62,492.644 401.286,491.144 401.5,489.5C 402.167,482.167 402.833,474.833 403.5,467.5 Z"/></g>
<g><path style="opacity:0.849" fill="#b2b2b2" d="M 407.5,467.5 C 407.833,467.5 408.167,467.5 408.5,467.5C 409.167,471.833 409.833,476.167 410.5,480.5C 410.142,483.689 409.475,486.689 408.5,489.5C 407.508,482.352 407.175,475.019 407.5,467.5 Z"/></g>
<g><path style="opacity:0.93" fill="#b5b5b5" d="M 421.5,467.5 C 422.167,467.5 422.833,467.5 423.5,467.5C 423.5,477.167 423.5,486.833 423.5,496.5C 420.81,492.091 419.477,487.091 419.5,481.5C 418.897,476.381 419.564,471.715 421.5,467.5 Z"/></g>
<g><path style="opacity:0.999" fill="#bdbdbd" d="M 423.5,467.5 C 424.5,467.5 425.5,467.5 426.5,467.5C 426.5,477.167 426.5,486.833 426.5,496.5C 425.5,496.5 424.5,496.5 423.5,496.5C 423.5,486.833 423.5,477.167 423.5,467.5 Z"/></g>
<g><path style="opacity:0.887" fill="#b5b5b5" d="M 429.5,466.5 C 429.179,471.695 429.513,476.695 430.5,481.5C 429.352,486.095 428.519,490.762 428,495.5C 427.617,496.056 427.117,496.389 426.5,496.5C 426.5,486.833 426.5,477.167 426.5,467.5C 427.609,467.443 428.609,467.11 429.5,466.5 Z"/></g>
<g><path style="opacity:0.891" fill="#b5b5b5" d="M 441.5,467.5 C 443.5,467.5 445.5,467.5 447.5,467.5C 449.43,471.373 450.097,475.706 449.5,480.5C 449.423,484.877 448.923,489.21 448,493.5C 447.617,494.056 447.117,494.389 446.5,494.5C 444.846,459.979 443.846,459.979 443.5,494.5C 442.25,494.423 441.417,493.756 441,492.5C 440.172,488.534 439.672,484.534 439.5,480.5C 440.819,477.508 440.819,474.508 439.5,471.5C 439.585,469.667 440.252,468.334 441.5,467.5 Z"/></g>
<g><path style="opacity:0.918" fill="#b5b5b5" d="M 458.5,467.5 C 460.5,467.5 462.5,467.5 464.5,467.5C 465.225,471.395 465.891,475.395 466.5,479.5C 466.506,484.151 465.173,488.151 462.5,491.5C 462.5,483.833 462.5,476.167 462.5,468.5C 461.5,468.5 460.5,468.5 459.5,468.5C 459.705,474.878 459.372,481.211 458.5,487.5C 457.469,485.039 456.802,482.373 456.5,479.5C 457.167,475.5 457.833,471.5 458.5,467.5 Z"/></g>
<g><path style="opacity:0.751" fill="#b2b2b2" d="M 32.5,468.5 C 34.5,468.5 36.5,468.5 38.5,468.5C 38.4595,471.881 38.7929,475.214 39.5,478.5C 39.6747,480.621 39.3414,482.621 38.5,484.5C 37.5128,479.695 37.1795,474.695 37.5,469.5C 36.1667,469.5 34.8333,469.5 33.5,469.5C 33.8205,474.695 33.4872,479.695 32.5,484.5C 31.6373,482.579 30.9707,480.579 30.5,478.5C 32.2712,475.241 32.9378,471.908 32.5,468.5 Z"/></g>
<g><path style="opacity:0.996" fill="#bebebe" d="M 107.5,494.5 C 106.5,494.5 105.5,494.5 104.5,494.5C 104.846,459.979 105.846,459.979 107.5,494.5 Z"/></g>
<g><path style="opacity:0.999" fill="#bcbcbc" d="M 123.5,491.5 C 122.167,491.5 120.833,491.5 119.5,491.5C 119.5,490.167 119.5,488.833 119.5,487.5C 120.372,481.211 120.705,474.878 120.5,468.5C 121.5,468.5 122.5,468.5 123.5,468.5C 123.5,476.167 123.5,483.833 123.5,491.5 Z"/></g>
<g><path style="opacity:0.802" fill="#b1b1b1" d="M 137.5,468.5 C 138.167,468.5 138.833,468.5 139.5,468.5C 140.167,471.833 140.833,475.167 141.5,478.5C 141.029,480.579 140.363,482.579 139.5,484.5C 138.79,479.268 138.123,473.935 137.5,468.5 Z"/></g>
<g><path style="opacity:0.751" fill="#b2b2b2" d="M 371.5,468.5 C 373.5,468.5 375.5,468.5 377.5,468.5C 377.46,471.881 377.793,475.214 378.5,478.5C 378.675,480.621 378.341,482.621 377.5,484.5C 376.513,479.695 376.179,474.695 376.5,469.5C 375.167,469.5 373.833,469.5 372.5,469.5C 372.821,474.695 372.487,479.695 371.5,484.5C 370.637,482.579 369.971,480.579 369.5,478.5C 371.271,475.241 371.938,471.908 371.5,468.5 Z"/></g>
<g><path style="opacity:0.996" fill="#bebebe" d="M 446.5,494.5 C 445.5,494.5 444.5,494.5 443.5,494.5C 443.846,459.979 444.846,459.979 446.5,494.5 Z"/></g>
<g><path style="opacity:0.999" fill="#bcbcbc" d="M 462.5,491.5 C 461.167,491.5 459.833,491.5 458.5,491.5C 458.5,490.167 458.5,488.833 458.5,487.5C 459.372,481.211 459.705,474.878 459.5,468.5C 460.5,468.5 461.5,468.5 462.5,468.5C 462.5,476.167 462.5,483.833 462.5,491.5 Z"/></g>
<g><path style="opacity:0.802" fill="#b1b1b1" d="M 476.5,468.5 C 477.167,468.5 477.833,468.5 478.5,468.5C 479.167,471.833 479.833,475.167 480.5,478.5C 480.029,480.579 479.363,482.579 478.5,484.5C 477.79,479.268 477.123,473.935 476.5,468.5 Z"/></g>
<g><path style="opacity:0.999" fill="#bbbbbb" d="M 38.5,484.5 C 38.5,485.833 38.5,487.167 38.5,488.5C 36.5,488.5 34.5,488.5 32.5,488.5C 32.5,487.167 32.5,485.833 32.5,484.5C 33.4872,479.695 33.8205,474.695 33.5,469.5C 34.8333,469.5 36.1667,469.5 37.5,469.5C 37.1795,474.695 37.5128,479.695 38.5,484.5 Z"/></g>
<g><path style="opacity:0.999" fill="#bababa" d="M 134.5,468.5 C 135.5,468.5 136.5,468.5 137.5,468.5C 138.123,473.935 138.79,479.268 139.5,484.5C 139.5,485.833 139.5,487.167 139.5,488.5C 137.5,488.5 135.5,488.5 133.5,488.5C 133.167,485.167 132.833,481.833 132.5,478.5C 132.899,474.989 133.566,471.656 134.5,468.5 Z"/></g>
<g><path style="opacity:0.999" fill="#bbbbbb" d="M 377.5,484.5 C 377.5,485.833 377.5,487.167 377.5,488.5C 375.5,488.5 373.5,488.5 371.5,488.5C 371.5,487.167 371.5,485.833 371.5,484.5C 372.487,479.695 372.821,474.695 372.5,469.5C 373.833,469.5 375.167,469.5 376.5,469.5C 376.179,474.695 376.513,479.695 377.5,484.5 Z"/></g>
<g><path style="opacity:0.999" fill="#bababa" d="M 473.5,468.5 C 474.5,468.5 475.5,468.5 476.5,468.5C 477.123,473.935 477.79,479.268 478.5,484.5C 478.5,485.833 478.5,487.167 478.5,488.5C 476.5,488.5 474.5,488.5 472.5,488.5C 472.167,485.167 471.833,481.833 471.5,478.5C 471.899,474.989 472.566,471.656 473.5,468.5 Z"/></g>
</svg>
